Gidole-Play-Regular.sfdir
StartChar: dollar
Encoding: 36 36 97
Width: 531
Flags: W
HStem: -5 70<146.245 234 288 354.74> 601 70<163.009 234 288 375.736>
VStem: 50 74<444.842 564.341> 234 54<-70 -3.11996 65 306 393 601 670.863 737> 407 74<115.302 245.56>
LayerCount: 4
Back
Fore
SplineSet
234 737 m 1
 288 737 l 1
 288 671 l 1
 345 667 403 650 453 619 c 1
 413 561 l 1
 376 583 333 596 288 601 c 1
 288 379 l 1
 348 363 390 343 423 312 c 0
 471 266 481 212 481 180 c 0
 481 125 455 73 413 40 c 0
 376 11 331 -2 288 -5 c 1
 288 -70 l 1
 234 -70 l 1
 234 -5 l 1
 166 0 99 23 44 63 c 1
 88 119 l 1
 130 88 182 70 234 65 c 1
 234 320 l 1
 195 330 150 344 113 375 c 0
 75 407 50 452 50 507 c 0
 50 555 73 599 108 628 c 0
 150 663 205 671 234 673 c 1
 234 737 l 1
234 602 m 1
 201 601 172 589 155 574 c 0
 129 551 124 520 124 507 c 0
 124 474 137 449 162 428 c 0
 181 412 206 401 234 393 c 1
 234 602 l 1
288 306 m 1
 288 65 l 1
 320 69 349 78 372 100 c 0
 393 120 407 146 407 180 c 0
 407 197 401 233 372 261 c 0
 347 285 326 293 288 306 c 1
EndSplineSet
Validated: 1
Layer: 2
Layer: 3
EndChar
StartChar: ampersand
Encoding: 38 38 104
Width: 613
Flags: W
HStem: -6 70<186.871 365.159> 308 70<191.529 396 470 558> 603 70<190.266 363.375>
VStem: 60 74<113.829 257.421> 72 74<423.278 559.547> 396 74<95.1928 308 378 490>
LayerCount: 4
Back
Fore
SplineSet
271 673 m 4xec
 326 673 384 658 431 622 c 1
 387 566 l 1
 354 592 313 603 272 603 c 0
 242 603 209 596 186 578 c 0
 162 560 146 529 146 492 c 0xec
 146 457 161 424 185 404 c 0
 216 378 250 378 282 378 c 2
 396 378 l 1
 396 490 l 1
 470 490 l 1
 470 378 l 1
 558 378 l 1
 558 308 l 1
 470 308 l 1
 470 171 l 2
 470 134 469 80 419 37 c 0
 384 7 338 -6 282 -6 c 0
 217 -6 165 10 125 42 c 0
 87 73 60 124 60 186 c 0xf4
 60 259 95.1176470588 314 150 344 c 1
 97.8493150685 378 72 435 72 492 c 0
 72 553 100 600 136 630 c 0
 175 663 225 673 271 673 c 4xec
396 308 m 1
 305 308 l 2
 266 308 212 308 175 278 c 0
 151.223152541 258.721475033 134 226 134 186 c 0xf4
 134 148 149 116 171 97 c 0
 200 72 240 64 282 64 c 0
 312 64 349 69 371 90 c 0
 395 113 396 140 396 171 c 2
 396 308 l 1
EndSplineSet
Validated: 1
Layer: 2
Layer: 3
EndChar
StartChar: parenright
Encoding: 41 41 78
Width: 320
Flags: W
VStem: 180 60<0.706802 594.293>
LayerCount: 4
Back
Fore
SplineSet
66 795 m 1
 122 771 167 727 194 675 c 0
 240 588 240 490 240 369 c 2
 240 226 l 2
 240 105 240 7 194 -80 c 0
 167 -132 122 -176 66 -200 c 1
 42 -149 l 1
 85 -130 119 -97 140 -56 c 0
 180 20 180 110 180 226 c 2
 180 369 l 2
 180 485 180 575 140 651 c 0
 119 692 85 725 42 744 c 1
 66 795 l 1
EndSplineSet
Validated: 1
Layer: 2
Layer: 3
EndChar
StartChar: zero
Encoding: 48 48 2
Width: 534
Flags: W
HStem: -6 70<188.834 345.166> 603 70<188.834 345.166>
VStem: 65 74<115.383 551.617> 395 74<115.383 551.617>
LayerCount: 4
Back
Fore
SplineSet
267 673 m 0
 332 673 386 648 420 611 c 0
 469 557 469 497 469 456 c 2
 469 211 l 2
 469 170 469 110 420 56 c 0
 386 19 332 -6 267 -6 c 0
 202 -6 148 19 114 56 c 0
 65 110 65 170 65 211 c 2
 65 456 l 2
 65 497 65 557 114 611 c 0
 148 648 202 673 267 673 c 0
267 603 m 0
 227 603 191 589 168 563 c 0
 139 530 139 490 139 456 c 2
 139 211 l 2
 139 177 139 137 168 104 c 0
 191 78 227 64 267 64 c 0
 307 64 343 78 366 104 c 0
 395 137 395 177 395 211 c 2
 395 456 l 2
 395 490 395 530 366 563 c 0
 343 589 307 603 267 603 c 0
EndSplineSet
Validated: 1
Layer: 2
Layer: 3
EndChar
StartChar: one
Encoding: 49 49 3
Width: 361
Flags: W
HStem: 0 21G<187 261> 597 70<90 180.495>
VStem: 187 74<0 589.988>
LayerCount: 4
Back
Fore
SplineSet
261 532 m 2
 261 0 l 1
 187 0 l 1
 187 532 l 2
 187 553 187 575 170 588 c 0
 158 597 141 597 124 597 c 2
 90 597 l 1
 90 667 l 1
 124 667 l 2
 148 667 188 667 221 639 c 0
 261 604 261 560 261 532 c 2
EndSplineSet
Validated: 1
Layer: 2
Layer: 3
EndChar
StartChar: two
Encoding: 50 50 4
Width: 515
Flags: W
HStem: 0 70<149.33 455> 603 70<145.394 317.459>
VStem: 64 74<72.9244 131.094> 362 74<421.227 558.534>
LayerCount: 4
Back
Fore
SplineSet
236 673 m 0
 293 673 335 658 369 632 c 0
 408 602 436 549 436 491 c 0
 436 416 397 372 363 337 c 2
 171 143 l 2
 156 128 138 112 138 92 c 0
 138 83 143 77 149 74 c 0
 156 70 166 70 179 70 c 2
 455 70 l 1
 455 0 l 1
 179 0 l 2
 160 0 138 0 114 12 c 0
 86 26 64 54 64 92 c 0
 64 137 96 170 117 191 c 2
 309 385 l 2
 337 414 362 442 362 491 c 0
 362 522 349 556 323 577 c 0
 301 595 272 603 236 603 c 0
 195 603 152 591 121 566 c 1
 77 622 l 1
 126 660 187 673 236 673 c 0
EndSplineSet
Validated: 1
Layer: 2
Layer: 3
EndChar
StartChar: three
Encoding: 51 51 5
Width: 486
Flags: W
HStem: -6 70<122.259 304.579> 597 70<75 326.718>
VStem: 334 74<537.385 593.788> 357 74<116.738 279.755>
LayerCount: 4
Back
Fore
SplineSet
75 667 m 5xe0
 297 667 l 6
 321 667 359 667 388 633 c 4
 400 619 408 602 408 578 c 4xe0
 408 539 385 512 367 490 c 6
 286 392 l 5
 317 386 346 372 370 350 c 4
 408 315 431 262 431 197 c 4
 431 132 407 80 370 46 c 4
 334 13 282 -6 219 -6 c 4
 153 -6 92 13 49 49 c 5
 96 103 l 5
 124 79 170 64 219 64 c 4
 257 64 294 74 318 96 c 4
 342 118 357 154 357 197 c 4xd0
 357 228 349 272 318 300 c 4
 287 328 250 328 216 328 c 6
 186 328 l 5
 186 385 l 5
 311 536 l 6
 323 551 334 563 334 578 c 4
 334 585 331 589 327 592 c 4
 321 596 314 597 297 597 c 6
 75 597 l 5
 75 667 l 5xe0
EndSplineSet
Validated: 1
Layer: 2
SplineSet
220 673 m 4xf0
 265.662109375 673 315.293945312 662 355 630 c 4
 391 600 419 553 419 492 c 4xf0
 419 435 394 379 344 345 c 5
 400 310 431 248 431 184 c 5
 431 124 404 73 366 42 c 4
 325 8 272 -6 219 -6 c 4
 150 -6 91 16 50 50 c 5
 97 104 l 5
 126 79 170 64 219 64 c 4
 259 64 296 75 320 97 c 4
 340 115 357 145 357 184 c 4xe8
 357 222 340 258 314 280 c 4
 280 308 242 308 209 308 c 6
 168 308 l 5
 168 378 l 5
 209 378 l 6
 241 378 275 378 306 404 c 4
 330 424 345 457 345 492 c 4
 345 529 329 560 305 578 c 4
 282 596 249 603 219 603 c 4
 178.309570312 603 136.56640625 591.694335938 104 566 c 5
 60 622 l 5
 107 658.288085938 164.994140625 673 220 673 c 4xf0
  Spiro
    220 673 o
    266.424 668.971 o
    312.545 655.351 o
    355 630 o
    387.564 594.485 o
    410.424 548.171 o
    419 492 o
    410.683 436.165 o
    385.633 385.509 o
    344 345 v
    391.406 301.976 o
    420.909 246.348 o
    431 184 v
    422.609 127.46 o
    399.712 79.2162 o
    366 42 o
    321.492 14.4658 o
    271.504 -1.12111 o
    219 -6 o
    153.691 0.949414 o
    96.6516 20.3953 o
    50 50 v
    97 104 v
    130.592 82.5363 o
    172.082 68.8054 o
    219 64 o
    257.593 67.6593 o
    292.069 78.6813 o
    320 97 o
    338.465 118.863 o
    351.862 148.144 o
    357 184 o
    351.64 220.854 o
    336.685 253.808 o
    314 280 o
    279.036 299.691 o
    243.298 306.966 o
    209 308 [
    168 308 v
    168 378 v
    209 378 ]
    241.449 378.96 o
    274.218 385.715 o
    306 404 o
    326.76 427.898 o
    340.232 458.107 o
    345 492 o
    339.973 526.709 o
    326.019 555.952 o
    305 578 o
    279.176 592.47 o
    249.488 600.524 o
    219 603 o
    178.378 599.125 o
    139.209 586.996 o
    104 566 v
    60 622 v
    110.094 651.328 o
    164.571 667.852 o
    0 0 z
  EndSpiro
EndSplineSet
Layer: 3
EndChar
StartChar: four
Encoding: 52 52 6
Width: 525
Flags: W
HStem: 0 21G<343 413> 165 70<130.379 343 413 470> 647 20G<238.27 332>
VStem: 51 74<242.536 320.677> 343 70<0 165 235 403>
LayerCount: 4
Back
Fore
SplineSet
332 667 m 1
 146 320 l 2
 135 301 125 282 125 264 c 0
 125 258 126 253 130 247 c 0
 138 235 152 235 170 235 c 2
 343 235 l 1
 343 403 l 1
 413 403 l 1
 413 235 l 1
 470 235 l 1
 470 233 l 1
 470 165 l 1
 413 165 l 1
 413 0 l 1
 343 0 l 1
 343 165 l 1
 196 165 l 1
 170 165 l 2
 153 165 129 165 105 177 c 0
 75 192 51 221 51 264 c 0
 51 300 68 330 80 352 c 2
 249 667 l 1
 332 667 l 1
EndSplineSet
Validated: 1
Layer: 2
Layer: 3
EndChar
StartChar: five
Encoding: 53 53 7
Width: 492
Flags: W
HStem: -6 70<133.578 315.504> 330 70<165.522 317.74> 597 70<157.505 401>
VStem: 77 74<414.518 589.988> 368 74<117.044 278.889>
LayerCount: 4
Back
Fore
SplineSet
77 463 m 2
 77 532 l 2
 77 560 77 604 117 639 c 0
 150 667 190 667 214 667 c 2
 401 667 l 1
 401 597 l 1
 214 597 l 2
 197 597 180 597 168 588 c 0
 151 575 151 553 151 532 c 2
 151 463 l 2
 151 439 153 425 165 414 c 0
 176 404 196 400 217 400 c 0
 289 400 341 387 381 350 c 0
 418 316 442 263 442 198 c 0
 442 132 418 80 381 46 c 0
 345 13 294 -6 230 -6 c 0
 165 -6 103 13 60 49 c 1
 107 103 l 1
 136 78 180 64 230 64 c 0
 273 64 306 75 329 96 c 0
 354 119 368 154 368 198 c 0
 368 241 353 278 329 300 c 0
 300 326 263 330 213 330 c 0
 178 330 142 340 118 360 c 0
 77 394 77 438 77 463 c 2
EndSplineSet
Validated: 1
Layer: 2
Layer: 3
EndChar
StartChar: seven
Encoding: 55 55 9
Width: 500
Flags: W
HStem: 0 21G<103 193.71> 597 70<55 359.622>
VStem: 370 74<506.443 593.257>
LayerCount: 4
Back
Fore
SplineSet
103 0 m 1
 352 514 l 2
 360 530 370 551 370 568 c 0
 370 579 366 586 360 591 c 0
 352 597 340 597 327 597 c 2
 55 597 l 1
 55 667 l 1
 327 667 l 2
 347 667 386 667 415 638 c 0
 432 621 444 599 444 568 c 0
 444 534 428 503 418 482 c 2
 184 0 l 1
 103 0 l 1
EndSplineSet
Validated: 1
Layer: 2
Layer: 3
EndChar
StartChar: question
Encoding: 63 63 43
Width: 469
Flags: W
HStem: -6 102<171.227 256.773> 603 70<118.394 290.459>
VStem: 163 102<2.22656 87.7734> 185 58<169.027 288.324> 335 74<423.497 558.421>
LayerCount: 4
Back
Fore
SplineSet
214 96 m 4xe8
 244 96 265 75 265 45 c 4
 265 15 244 -6 214 -6 c 4
 184 -6 163 15 163 45 c 4
 163 75 184 96 214 96 c 4xe8
209 673 m 4
 266 673 308 658 342 632 c 4
 381 602 409 549 409 490 c 4
 409 427 379 381 343 351 c 4
 307 321 265 306 250 262 c 4
 247 253 244 240 243 216 c 6
 241 169 l 5
 241 169 187 169 187 169 c 5
 187 169 185 206 185 224 c 4xd8
 185 245 186 257 190 276 c 4
 204 344 263 375 294 402 c 4
 319 424 335 451 335 490 c 4
 335 522 322 556 296 577 c 4
 274 595 245 603 209 603 c 4
 168 603 125 591 94 566 c 5
 50 622 l 5
 99 660 160 673 209 673 c 4
EndSplineSet
Validated: 1
Layer: 2
Layer: 3
EndChar
StartChar: at
Encoding: 64 64 116
Width: 860
Flags: W
HStem: -185 62<209.073 650.927> -6 66<342.002 508.278> 229 62<342.675 534> 419 62<209.073 496.036> 605 62<277 586.496>
VStem: 75 66<-54.1303 350.13> 241 70<89.5318 197.999> 534 70<86.1153 229 291 381.884> 719 66<-54.1303 471.145>
LayerCount: 4
Back
Fore
SplineSet
534 297 m 6
 534 328 534 371 497 398 c 0
 468 419 429 419 390 419 c 2
 328 419 l 2
 280 419 218 419 177 371 c 0
 141 329 141 275 141 230 c 2
 141 66 l 2
 141 21 141 -33 177 -75 c 0
 218 -123 280 -123 328 -123 c 2
 532 -123 l 2
 580 -123 642 -123 683 -75 c 0
 719 -33 719 21 719 66 c 2
 719 316 l 2
 719 382 719 470 659 535 c 0
 594 605 503 605 432 605 c 2
 277 605 l 1
 277 667 l 1
 432 667 l 2
 502 667 608 667 690 594 c 0
 785 509 785 395 785 316 c 2
 785 66 l 2
 785 13 785 -59 730 -119 c 0
 669 -185 584 -185 532 -185 c 2
 328 -185 l 2
 276 -185 191 -185 130 -119 c 0
 75 -59 75 13 75 66 c 2
 75 230 l 2
 75 283 75 355 130 415 c 0
 191 481 276 481 328 481 c 2
 390 481 l 2
 437 481 495 481 544 444 c 0
 604 399 604 332 604 297 c 6
 604 158 l 6
 604 128 604 76 558 35 c 4
 524 5 479 -6 429 -6 c 4
 372 -6 327 7 293 34 c 4
 259 61 241 100 241 143 c 4
 241 195 268 233 298 255 c 4
 347 291 401 291 449 291 c 6
 534 291 l 5
 534 297 l 6
449 229 m 6
 407 229 371 229 341 206 c 4
 324 193 311 172 311 143 c 4
 311 116 323 96 339 84 c 4
 360 67 392 60 429 60 c 4
 462 60 491 67 509 82 c 4
 529 99 534 121 534 158 c 6
 534 229 l 5
 449 229 l 6
EndSplineSet
Validated: 1
Layer: 2
Layer: 3
EndChar
StartChar: A
Encoding: 65 65 13
Width: 594
Flags: W
HStem: 0 21G<35 116.333 477.667 559> 195 70<182 412> 602 70<271.993 322.007>
AnchorPoint: "DoubleTop" -20 0 basechar 0
AnchorPoint: "Apos" -20 0 basechar 0
AnchorPoint: "Center" -20 0 basechar 0
AnchorPoint: "Bottom" 463 0 basechar 0
AnchorPoint: "Top" 285 667 basechar 0
LayerCount: 4
Back
Fore
SplineSet
297 672 m 0
 323 672 350 663 370 644 c 0
 387 628 395 611 403 582 c 2
 559 0 l 1
 483 0 l 1
 431 195 l 1
 163 195 l 1
 111 0 l 1
 35 0 l 1
 191 582 l 2
 199 611 207 628 224 644 c 0
 244 663 271 672 297 672 c 0
297 602 m 0
 289 602 281 599 276 594 c 0
 269 587 266 577 263 566 c 2
 182 265 l 1
 412 265 l 1
 331 566 l 2
 328 577 325 587 318 594 c 0
 313 599 305 602 297 602 c 0
EndSplineSet
Layer: 2
Layer: 3
EndChar
StartChar: B
Encoding: 66 66 14
Width: 550
Flags: W
HStem: 0 70<155.505 376.139> 309 70<149 362.395> 597 70<155.505 362.32>
VStem: 75 74<77.012 309 379 589.988> 401 74<418.143 557.242> 421 74<114.888 263.812>
LayerCount: 4
Back
Fore
SplineSet
274 597 m 6xf8
 212 597 l 6
 195 597 178 597 166 588 c 4
 149 575 149 553 149 532 c 6
 149 379 l 5
 274 379 l 6
 312 379 342 381 368 405 c 4
 391 427 401 457 401 488 c 4
 401 519 391 549 368 571 c 4
 342 595 312 597 274 597 c 6xf8
283 309 m 6
 149 309 l 5
 149 135 l 6
 149 114 149 92 166 79 c 4
 178 70 195 70 212 70 c 6
 283 70 l 6
 323 70 356 70 385 98 c 4
 412 124 421 158 421 189 c 4xf4
 421 225 408 261 382 283 c 4
 353 308 320 309 283 309 c 6
274 667 m 6
 321 667 369 664 414 626 c 4
 450 596 475 547 475 488 c 4xf8
 475 427 449 379 408 349 c 5
 461 318 495 262 495 189 c 4
 495 129 470 75 431 43 c 4
 382 2 334 0 284 0 c 6
 212 0 l 6
 188 0 148 0 115 28 c 4
 75 63 75 107 75 135 c 6
 75 532 l 6
 75 560 75 604 115 639 c 4
 148 667 188 667 212 667 c 6
 274 667 l 6
EndSplineSet
Validated: 1
Layer: 2
Layer: 3
EndChar
StartChar: D
Encoding: 68 68 17
Width: 578
Flags: W
HStem: 0 70<155.505 371.008> 597 70<155.505 371.008>
VStem: 75 74<77.012 589.988> 441 74<141.936 525.064>
AnchorPoint: "DoubleTop" 0 0 basechar 0
AnchorPoint: "Apos" 0 0 basechar 0
AnchorPoint: "Center" -5 0 basechar 0
AnchorPoint: "Bottom" 277 0 basechar 0
AnchorPoint: "Top" 280 667 basechar 0
LayerCount: 4
Back
Fore
SplineSet
212 70 m 2
 258 70 l 2
 309 70 358 71 399 113 c 0
 440 156 441 221 441 275 c 2
 441 392 l 2
 441 446 440 511 399 554 c 0
 358 596 309 597 258 597 c 2
 212 597 l 2
 195 597 178 597 166 588 c 0
 149 575 149 553 149 532 c 2
 149 135 l 2
 149 114 149 92 166 79 c 0
 178 70 195 70 212 70 c 2
212 667 m 2
 258 667 l 2
 311 667 396 667 459 595 c 0
 515 531 515 452 515 392 c 2
 515 275 l 2
 515 215 515 136 459 72 c 0
 396 0 311 0 258 0 c 2
 212 0 l 2
 188 0 148 0 115 28 c 0
 75 63 75 107 75 135 c 2
 75 532 l 2
 75 560 75 604 115 639 c 0
 148 667 188 667 212 667 c 2
EndSplineSet
Validated: 1
Layer: 2
Layer: 3
EndChar
StartChar: E
Encoding: 69 69 18
Width: 500
Flags: W
HStem: 0 70<156.697 435> 308 70<149 385> 596 70<156.697 435>
VStem: 75 74<76.7269 308 378 589.273>
AnchorPoint: "DoubleTop" 0 0 basechar 0
AnchorPoint: "Apos" 0 0 basechar 0
AnchorPoint: "Center" 0 0 basechar 0
AnchorPoint: "Bottom" 255 0 basechar 0
AnchorPoint: "Top" 255 667 basechar 0
LayerCount: 4
Back
Fore
SplineSet
149 378 m 1
 385 379 l 1
 385 309 l 1
 149 308 l 1
 149 155 l 6
 149 114 149 92 166 79 c 4
 178 70 195 70 232 70 c 6
 435 70 l 5
 435 0 l 5
 232 0 l 6
 188 0 148 0 115 28 c 4
 75 63 75 107 75 155 c 6
 75 511 l 2
 75 559 75 603 115 638 c 0
 148 666 188 666 232 666 c 2
 435 666 l 1
 435 596 l 1
 232 596 l 2
 195 596 178 596 166 587 c 0
 149 574 149 552 149 511 c 2
 149 378 l 1
EndSplineSet
Layer: 2
Layer: 3
EndChar
StartChar: F
Encoding: 70 70 19
Width: 500
Flags: W
HStem: 0 21G<75 149> 309 70<149 395> 597 70<155.505 445>
VStem: 75 74<0 309 379 589.988>
LayerCount: 4
Back
Fore
SplineSet
212 667 m 6
 445 667 l 5
 445 597 l 5
 212 597 l 6
 195 597 178 597 166 588 c 4
 149 575 149 553 149 532 c 6
 149 379 l 5
 395 379 l 5
 395 309 l 5
 149 309 l 5
 149 0 l 5
 75 0 l 5
 75 532 l 6
 75 560 75 604 115 639 c 4
 148 667 188 667 212 667 c 6
EndSplineSet
Validated: 1
Layer: 2
Layer: 3
EndChar
StartChar: G
Encoding: 71 71 28
Width: 580
Flags: W
HStem: -6 70<200.727 379.273> 287 70<303 441> 603 70<201.936 387.555>
VStem: 65 74<125.042 542.694> 441 74<125.042 287>
LayerCount: 4
Back
Fore
SplineSet
290 673 m 4
 354 673 418 654 468 614 c 5
 424 558 l 5
 387 589 337 603 290 603 c 4
 245 603 201 590 173 559 c 4
 139 521 139 478 139 438 c 6
 139 229 l 6
 139 191 139 146 172 109 c 4
 198 80 239 64 290 64 c 4
 341 64 382 80 408 109 c 4
 441 146 441 191 441 229 c 6
 441 287 l 5
 303 287 l 5
 303 357 l 5
 515 357 l 5
 515 229 l 6
 515 183 515 115 458 57 c 4
 417 16 359 -6 290 -6 c 4
 221 -6 163 16 122 57 c 4
 65 115 65 183 65 229 c 6
 65 438 l 6
 65 481 65 543 112 599 c 4
 154 649 220 673 290 673 c 4
EndSplineSet
Validated: 1
Layer: 2
Layer: 3
EndChar
StartChar: J
Encoding: 74 74 22
Width: 448
Flags: W
HStem: -6 70<100.001 259.518> 647 20G<304 378>
VStem: 304 74<107.978 667>
AnchorPoint: "DoubleTop" -3 0 basechar 0
AnchorPoint: "Apos" -3 0 basechar 0
AnchorPoint: "Center" -3 0 basechar 0
AnchorPoint: "Bottom" 193 0 basechar 0
AnchorPoint: "Top" 341 667 basechar 0
LayerCount: 4
Back
Fore
SplineSet
304 201 m 6
 304 667 l 5
 378 667 l 5
 378 201 l 6
 378 163 378 105 332 54 c 4
 295 13 238 -6 183 -6 c 4
 132 -6 77 9 35 44 c 5
 82 98 l 5
 108 76 145 64 183 64 c 4
 221 64 257 77 278 102 c 4
 304 133 304 168 304 201 c 6
EndSplineSet
Validated: 1
Layer: 2
Layer: 3
EndChar
StartChar: L
Encoding: 76 76 23
Width: 510
Flags: W
HStem: 0 70<155.505 455> 647 20G<75 149>
VStem: 75 74<77.012 667>
AnchorPoint: "DoubleTop" 0 0 basechar 0
AnchorPoint: "Apos" 212 667 basechar 0
AnchorPoint: "Bottom" 265 0 basechar 0
AnchorPoint: "Center" 265 334 basechar 0
AnchorPoint: "Top" 113 667 basechar 0
LayerCount: 4
Back
Fore
SplineSet
75 135 m 6
 75 667 l 5
 149 667 l 5
 149 135 l 6
 149 114 149 92 166 79 c 4
 178 70 195 70 212 70 c 6
 455 70 l 5
 455 0 l 5
 212 0 l 6
 188 0 148 0 115 28 c 4
 75 63 75 107 75 135 c 6
EndSplineSet
Validated: 1
Layer: 2
Layer: 3
EndChar
StartChar: M
Encoding: 77 77 27
Width: 850
VWidth: 0
Flags: W
HStem: 0 21G<72 146 388 462 704 778> 599 70<173.457 360.543 489.457 676.543>
VStem: 72 74<0 571.176> 388 74<0 571.936> 704 74<0 571.176>
CounterMasks: 1 38
LayerCount: 4
Back
Fore
SplineSet
146 0 m 5
 72 0 l 5
 72 484 l 6
 72 504.901367188 72.0204929692 528.583743459 78.296875 553.640625 c 4
 84.5966796875 578.791015625 97.0483398378 603.363769525 116.928710938 623.244140625 c 4
 136.826171875 643.141601562 161.967787778 656.024356808 187.958007812 662.534179688 c 4
 213.912909264 669.03515625 238.072265625 669 259 669 c 6
 275 669 l 6
 295.927734375 669 320.22623947 669 346.041992188 662.534179688 c 4
 372.033203125 656.024414062 397.173828581 643.142578581 417.071289062 623.244140625 c 4
 419.858989108 620.456303632 422.500651338 617.576129167 424.9997872 614.614988283 c 5
 427.499020949 617.576084893 430.140821784 620.456251471 432.928710938 623.244140625 c 4
 452.826171875 643.141601562 477.967787778 656.024356808 503.958007812 662.534179688 c 4
 529.912909264 669.03515625 554.072265625 669 575 669 c 6
 591 669 l 6
 611.927734375 669 636.22623947 669 662.041992188 662.534179688 c 4
 688.033203125 656.024414062 713.173828581 643.142578581 733.071289062 623.244140625 c 4
 752.950195312 603.364257812 765.403045626 578.788993686 771.703125 553.641601562 c 4
 777.98046875 528.584960938 778 504.900390625 778 484 c 6
 778 0 l 5
 704 0 l 5
 704 484 l 6
 704 504.412109375 703.458795677 522.483351169 699.697265625 537.5 c 4
 695.958007812 552.427734375 688.645018418 565.806151256 679.311523438 575.140625 c 4
 669.999023438 584.454101562 657.183436893 591.338240992 643.100585938 594.866210938 c 4
 628.887695312 598.426757812 611.384765625 599 591 599 c 6
 575 599 l 6
 554.615234375 599 537.112521167 598.425893565 522.899414062 594.866210938 c 4
 508.815429688 591.338867188 496.001953125 584.454101562 486.688476562 575.140625 c 4
 477.35546875 565.807617188 470.041719393 552.425849589 466.302734375 537.5 c 4
 462.541015625 522.483398438 462 504.411132812 462 484 c 6
 462 0 l 5
 388 0 l 5
 388 484 l 6
 388 504.412109375 387.458795677 522.483351169 383.697265625 537.5 c 4
 379.958007812 552.427734375 372.645018418 565.806151256 363.311523438 575.140625 c 4
 353.999023438 584.454101562 341.183436893 591.338240992 327.100585938 594.866210938 c 4
 312.887695312 598.426757812 295.384765625 599 275 599 c 6
 259 599 l 6
 238.615234375 599 221.112521167 598.425893565 206.899414062 594.866210938 c 4
 192.815429688 591.338867188 180.001953125 584.454101562 170.688476562 575.140625 c 4
 161.35546875 565.807617188 154.041719393 552.425849589 150.302734375 537.5 c 4
 146.541015625 522.483398438 146 504.411132812 146 484 c 6
 146 0 l 5
EndSplineSet
Validated: 524321
Layer: 2
Layer: 3
EndChar
StartChar: N
Encoding: 78 78 33
Width: 564
VWidth: 0
Flags: W
HStem: 0 21G<72 146 418 492> 599 70<176.034 387.967>
VStem: 72 74<0 568.691> 418 74<0 568.69>
AnchorPoint: "DoubleTop" -16 0 basechar 0
AnchorPoint: "Apos" -16 0 basechar 0
AnchorPoint: "Center" -19 0 basechar 0
AnchorPoint: "Bottom" 281 0 basechar 0
AnchorPoint: "Top" 279 667 basechar 0
LayerCount: 4
Back
Fore
SplineSet
146 0 m 5
 72 0 l 5
 72 479 l 4
 72 500.58984375 72.0295686252 524.968681927 78.4736328125 550.694335938 c 4
 84.9404296875 576.510742188 97.7216796875 601.715820312 118.08984375 622.083984375 c 4
 138.474609375 642.46875 164.248119917 655.679395915 190.90625 662.357421875 c 4
 217.434570312 669.002929688 242.384765625 669 264 669 c 4
 300 669 l 4
 321.6171875 669 346.562772987 669.004019534 373.095703125 662.357421875 c 4
 399.752929688 655.6796875 425.523925331 642.469237819 445.91015625 622.083984375 c 4
 466.27734375 601.717773438 479.060505955 576.506825688 485.526367188 550.693359375 c 4
 491.969726562 524.969726562 492 500.587890625 492 479 c 4
 492 0 l 5
 418 0 l 5
 418 479 l 4
 418 500.1015625 417.450700731 518.866337553 413.520507812 534.553710938 c 4
 409.61328125 550.149414062 401.97265625 564.159179688 392.15234375 573.979492188 c 4
 382.352539062 583.779296875 368.903507357 590.994887253 354.150390625 594.690429688 c 4
 339.2734375 598.416992188 321.072265625 599 300 599 c 4
 264 599 l 4
 242.92578125 599 224.729419445 598.417282592 209.84765625 594.689453125 c 4
 195.095703125 590.994140625 181.6484375 583.780273438 171.84765625 573.979492188 c 4
 162.028320312 564.16015625 154.385012243 550.14666722 150.479492188 534.553710938 c 4
 146.55078125 518.868164062 146 500.098632812 146 479 c 4
 146 0 l 5
EndSplineSet
Validated: 524321
Layer: 2
Layer: 3
EndChar
StartChar: P
Encoding: 80 80 31
Width: 525
Flags: W
HStem: 0 21G<75 149> 237 70<149 344.485> 597 70<155.505 344.485>
VStem: 75 74<0 237 307 589.988> 401 74<364.343 539.657>
LayerCount: 4
Back
Fore
SplineSet
248 667 m 6
 290 667 357 667 413 613 c 4
 475 553 475 467 475 452 c 4
 475 437 475 351 413 291 c 4
 357 237 290 237 248 237 c 6
 149 237 l 1
 149 0 l 1
 75 0 l 1
 75 532 l 2
 75 560 75 604 115 639 c 0
 148 667 188 667 212 667 c 2
 248 667 l 6
248 597 m 6
 212 597 l 2
 195 597 178 597 166 588 c 0
 149 575 149 553 149 532 c 2
 149 307 l 1
 248 307 l 6
 283 307 326 307 360 340 c 4
 401 380 401 442 401 452 c 4
 401 462 401 524 360 564 c 4
 326 597 283 597 248 597 c 6
EndSplineSet
Validated: 1
Layer: 2
Layer: 3
EndChar
StartChar: Q
Encoding: 81 81 30
Width: 600
Flags: W
HStem: -6 70<209.708 376.422> 603 70<209.708 390.292>
VStem: 65 74<131.668 535.332> 461 74<132.45 535.332>
LayerCount: 4
Back
Fore
SplineSet
300 603 m 0
 247 603 198 585 169 548 c 0
 139 510 139 466 139 428 c 2
 139 239 l 2
 139 201 139 157 169 119 c 0
 198 82 247 64 300 64 c 0
 353 64 402 82 431 119 c 0
 461 157 461 201 461 239 c 2
 461 428 l 2
 461 466 461 510 431 548 c 0
 402 585 353 603 300 603 c 0
300 673 m 0
 374 673 437 647 477 605 c 0
 534 546 535 479 535 428 c 2
 535 239 l 2
 535 185 535 96 442 33 c 1
 544 -36 l 1
 507 -95 l 1
 363 1 l 1
 343 -4 322 -6 300 -6 c 0
 226 -6 163 20 123 62 c 0
 66 121 65 188 65 239 c 2
 65 428 l 2
 65 479 66 546 123 605 c 0
 163 647 226 673 300 673 c 0
EndSplineSet
Validated: 1
Layer: 2
Layer: 3
EndChar
StartChar: R
Encoding: 82 82 32
Width: 560
Flags: W
HStem: 0 21G<75 149 406.737 495> 257 70<149 307.157> 597 70<155.505 356.961>
VStem: 75 74<0 257 327 589.988> 411 74<382.316 542.502>
AnchorPoint: "DoubleTop" 0 0 basechar 0
AnchorPoint: "Apos" 0 0 basechar 0
AnchorPoint: "Center" -5 0 basechar 0
AnchorPoint: "Bottom" 277 0 basechar 0
AnchorPoint: "Top" 255 667 basechar 0
LayerCount: 4
Back
Fore
SplineSet
212 597 m 2
 195 597 178 597 166 588 c 0
 149 575 149 553 149 532 c 2
 149 327 l 1
 258 327 l 2
 293 327 331 327 365 354 c 0
 391 375 411 413 411 462 c 0
 411 511 391 549 365 570 c 0
 331 597 293 597 258 597 c 2
 212 597 l 2
212 667 m 2
 258 667 l 2
 299 667 358 667 412 624 c 0
 453 592 485 535 485 462 c 0
 485 374 440 309 377 278 c 1
 495 0 l 1
 415 0 l 1
 308 259 l 1
 290 257 273 257 258 257 c 2
 149 257 l 1
 149 0 l 1
 75 0 l 1
 75 532 l 2
 75 560 75 604 115 639 c 0
 148 667 188 667 212 667 c 2
EndSplineSet
Validated: 1
Layer: 2
Layer: 3
EndChar
StartChar: S
Encoding: 83 83 35
Width: 510
Flags: W
HStem: -6 70<146.994 330.033> 603 70<164.083 348.795>
VStem: 49 74<445.103 562.81> 386 74<115.775 244.907>
AnchorPoint: "DoubleTop" -6 0 basechar 0
AnchorPoint: "Apos" -6 0 basechar 0
AnchorPoint: "Center" -6 0 basechar 0
AnchorPoint: "Bottom" 250 0 basechar 0
AnchorPoint: "Top" 250 667 basechar 0
LayerCount: 4
Back
Fore
SplineSet
247 603 m 4
 158 603 123 552 123 504 c 4
 123 475 138 446 163 426 c 4
 187 406 226 393 259 383 c 4
 303 370 352 355 394 319 c 4
 429 289 460 240 460 180 c 4
 460 89 387 -6 247 -6 c 4
 173 -6 98 20 43 68 c 5
 90 122 l 5
 133 84 191 64 247 64 c 4
 344 64 386 126 386 180 c 4
 386 214 370 246 342 269 c 4
 315 292 274 305 228 319 c 4
 191 330 149 344 111 376 c 4
 77 404 49 452 49 502 c 4
 49 598 124 673 247 673 c 4
 319 673 385 650 433 613 c 5
 389 557 l 5
 355 584 305 603 247 603 c 4
EndSplineSet
Validated: 1
Layer: 2
Layer: 3
EndChar
StartChar: U
Encoding: 85 85 24
Width: 570
Flags: W
HStem: -6 70<201.722 368.278> 647 20G<70 144 426 500>
VStem: 70 74<119.424 667> 426 74<119.424 667>
AnchorPoint: "DoubleTop" 0 0 basechar 0
AnchorPoint: "Apos" 0 0 basechar 0
AnchorPoint: "Center" 0 0 basechar 0
AnchorPoint: "Bottom" 283 0 basechar 0
AnchorPoint: "Top" 285 667 basechar 0
LayerCount: 4
Back
Fore
SplineSet
70 667 m 5
 144 667 l 5
 144 219 l 6
 144 184 144 142 174 108 c 4
 197 82 235 64 285 64 c 4
 335 64 373 82 396 108 c 4
 426 142 426 184 426 219 c 6
 426 667 l 5
 500 667 l 5
 500 219 l 6
 500 177 500 116 451 61 c 4
 416 21 356 -6 285 -6 c 4
 214 -6 154 21 119 61 c 4
 70 116 70 177 70 219 c 6
 70 667 l 5
EndSplineSet
Validated: 1
Layer: 2
Layer: 3
EndChar
StartChar: V
Encoding: 86 86 25
Width: 594
Flags: W
HStem: -6 70<271.993 322.007> 647 20G<35 116.362 477.638 559>
VStem: 483 76<640.888 667>
LayerCount: 4
Back
Fore
SplineSet
35 667 m 1
 111 667 l 1
 263 100 l 2
 266 89 269 79 276 72 c 0
 281 67 289 64 297 64 c 0
 305 64 313 67 318 72 c 0
 325 79 328 89 331 100 c 2
 483 667 l 1
 559 667 l 1
 403 84 l 2
 395 55 387 38 370 22 c 0
 350 3 323 -6 297 -6 c 0
 271 -6 244 3 224 22 c 0
 207 38 199 55 191 84 c 2
 35 667 l 1
EndSplineSet
Validated: 1
Layer: 2
Layer: 3
EndChar
StartChar: W
Encoding: 87 87 26
Width: 846
VWidth: 0
Flags: W
HStem: -6 70<188.601 340.587 505.413 657.399> 647 20G<70 144 386 460 702 776>
VStem: 70 74<106.721 667> 386 74<106.721 667> 702 74<106.721 667>
CounterMasks: 1 38
AnchorPoint: "DoubleTop" 23 0 basechar 0
AnchorPoint: "Apos" 23 0 basechar 0
AnchorPoint: "Bottom" 33 0 basechar 0
AnchorPoint: "Center" 33 0 basechar 0
AnchorPoint: "Top" 423 667 basechar 0
LayerCount: 4
Back
Fore
SplineSet
70 667 m 5
 144 667 l 1
 144 199 l 2
 144 167 144 121 180 92 c 0
 202 74 231 64 265 64 c 0
 299 64 328 74 350 92 c 0
 386 121 386 167 386 199 c 2
 386 667 l 1
 460 667 l 1
 460 199 l 2
 460 167 460 121 496 92 c 0
 518 74 547 64 581 64 c 0
 615 64 644 74 666 92 c 0
 702 121 702 167 702 199 c 2
 702 667 l 1
 776 667 l 1
 776 199 l 2
 776 160 776 107 733 57 c 0
 701 20 647 -6 581 -6 c 0
 511 -6 456 22 423 64 c 1
 390 22 335 -6 265 -6 c 0
 199 -6 145 20 113 57 c 0
 70 107 70 160 70 199 c 2
 70 667 l 5
EndSplineSet
Validated: 1
Layer: 2
Layer: 3
EndChar
StartChar: Y
Encoding: 89 89 37
Width: 556
VWidth: 0
Flags: W
HStem: 0 21G<241 315> 647 20G<35 125.881 430.119 521>
VStem: 241 74<0 321.988>
AnchorPoint: "DoubleTop" 8.28027 0 basechar 0
AnchorPoint: "Apos" 8.28027 0 basechar 0
AnchorPoint: "Bottom" 18.2803 0 basechar 0
AnchorPoint: "Center" 18.2803 0 basechar 0
AnchorPoint: "Top" 278.28 667 basechar 0
LayerCount: 4
Back
Fore
SplineSet
35 667 m 5
 116 667 l 1
 241 414 l 2
 248 399 255 388 262 381 c 0
 268 375 273 374 278 374 c 0
 283 374 288 375 294 381 c 0
 301 388 308 399 315 414 c 2
 440 667 l 1
 521 667 l 1
 381 385 l 2
 367 357 351 326 315 309 c 1
 315 0 l 1
 241 0 l 1
 241 309 l 1
 205 326 189 357 175 385 c 2
 35 667 l 5
521 667 m 1025
EndSplineSet
Validated: 1
Layer: 2
Layer: 3
EndChar
StartChar: Z
Encoding: 90 90 38
Width: 540
VWidth: 0
Flags: W
HStem: 0 70<135.52 480> 597 70<70 395.523>
VStem: 51 74<76.1767 142.604> 405 74<523.706 589.874>
AnchorPoint: "DoubleTop" 0 0 basechar 0
AnchorPoint: "Apos" 0 0 basechar 0
AnchorPoint: "Center" 5 0 basechar 0
AnchorPoint: "Bottom" 270 0 basechar 0
AnchorPoint: "Top" 270 667 basechar 0
LayerCount: 4
Back
Fore
SplineSet
70 667 m 1
 350 667 l 2
 376 667 419 667 452 633 c 0
 467 618 479 596 479 566 c 0
 479 524 453 494 436 474 c 2
 152 149 l 2
 138 133 125 118 125 101 c 0
 125 91 128 85 135 79 c 0
 146 70 163 70 180 70 c 2
 480 70 l 1
 480 0 l 1
 180 0 l 2
 158 0 119 0 88 25 c 0
 67 42 51 67 51 101 c 0
 51 144 77 173 94 193 c 2
 373 512 l 2
 387 528 405 547 405 566 c 0
 405 577 401 582 396 587 c 0
 386 597 365 597 350 597 c 2
 70 597 l 1
 70 667 l 1
EndSplineSet
Validated: 1
Layer: 2
Layer: 3
EndChar
StartChar: a
Encoding: 97 97 47
Width: 458
Flags: W
HStem: -6 66<141.002 307.278> 229 62<141.675 333> 417 66<105.793 297.224>
VStem: 40 70<89.5318 197.999> 333 70<86.1153 229 291 381.578>
AnchorPoint: "DoubleTop" -5 0 basechar 0
AnchorPoint: "Apos" -5 0 basechar 0
AnchorPoint: "Center" -5 0 basechar 0
AnchorPoint: "Bottom" 213 0 basechar 0
AnchorPoint: "Top" 218 477 basechar 0
LayerCount: 4
Back
Fore
SplineSet
218 483 m 0
 285 483 332 461 363 427 c 0
 403 382 403 331 403 297 c 6
 403 158 l 6
 403 128 403 76 357 35 c 4
 323 5 278 -6 228 -6 c 4
 171 -6 126 7 92 34 c 4
 58 61 40 100 40 143 c 4
 40 195 67 233 97 255 c 4
 146 291 200 291 248 291 c 6
 333 291 l 5
 333 297 l 6
 333 325 333 359 309 385 c 0
 290 405 262 417 218 417 c 0
 175 417 130 407 90 389 c 1
 60 449 l 1
 112 472 164 483 218 483 c 0
248 229 m 6
 206 229 170 229 140 206 c 4
 123 193 110 172 110 143 c 4
 110 116 122 96 138 84 c 4
 159 67 191 60 228 60 c 4
 261 60 290 67 308 82 c 4
 328 99 333 121 333 158 c 6
 333 229 l 5
 248 229 l 6
EndSplineSet
Validated: 1
Layer: 2
Layer: 3
EndChar
StartChar: b
Encoding: 98 98 55
Width: 485
VWidth: 0
Flags: W
HStem: -6 66<172.386 317.614> 417 66<172.647 317.346> 647 20G<60 130>
VStem: 60 70<101.988 375.173 433 667> 360 70<101.988 374.302>
LayerCount: 4
Back
Fore
SplineSet
255 483 m 0
 315 483 362 455 389 423 c 0
 430 375 430 320 430 281 c 2
 430 194 l 2
 430 156 430 99 383 49 c 0
 348 12 296 -6 245 -6 c 0
 194 -6 142 12 107 49 c 0
 60 99 60 156 60 194 c 2
 60 667 l 1
 130 667 l 1
 130 433 l 1
 157 463 203 483 255 483 c 0
245 417 m 0
 206 417 173 402 154 378 c 0
 130 348 130 313 130 283 c 2
 130 194 l 2
 130 162 130 129 154 99 c 0
 174 74 207 60 245 60 c 0
 283 60 316 74 336 99 c 0
 360 129 360 162 360 194 c 2
 360 283 l 2
 360 313 360 348 336 378 c 0
 317 402 284 417 245 417 c 0
EndSplineSet
Validated: 1
Layer: 2
Layer: 3
EndChar
StartChar: c
Encoding: 99 99 54
Width: 419
Flags: W
HStem: -6 66<170.52 340.12> 417 66<170.367 334.691>
VStem: 55 70<105.068 370.62>
AnchorPoint: "DoubleTop" 0 0 basechar 0
AnchorPoint: "Apos" 0 0 basechar 0
AnchorPoint: "Center" 5 0 basechar 0
AnchorPoint: "Bottom" 245 0 basechar 0
AnchorPoint: "Top" 245 477 basechar 0
LayerCount: 4
Back
Fore
SplineSet
245 -6 m 0
 185 -6 132 16 98 56 c 0
 55 106 55 164 55 202 c 2
 55 275 l 2
 55 315 55 371 98 421 c 0
 130 458 180 483 245 483 c 0
 288 483 329 472 368 453 c 1
 339 393 l 1
 309 409 276 417 245 417 c 0
 208 417 173 405 151 378 c 0
 125 346 125 310 125 275 c 2
 125 202 l 2
 125 169 125 131 151 99 c 0
 173 72 208 60 245 60 c 0
 277 60 310 69 341 86 c 1
 374 28 l 1
 336 7 290 -6 245 -6 c 0
EndSplineSet
Validated: 1
Layer: 2
Layer: 3
EndChar
StartChar: d
Encoding: 100 100 49
Width: 480
VWidth: 0
Flags: W
HStem: -6 66<167.032 319.224> 417 66<167.032 319.808> 647 20G<350 420>
VStem: 55 70<101.326 375.675> 350 70<89.6679 387.465 448.073 667>
AnchorPoint: "DoubleTop" 0 0 basechar 0
AnchorPoint: "Center" 0 0 basechar 0
AnchorPoint: "Top" 0 0 basechar 0
AnchorPoint: "Apos" 488 667 basechar 0
AnchorPoint: "Bottom" 240 0 basechar 0
LayerCount: 4
Back
SplineSet
55 283 m 6
 55 310.709960938 55.5849609375 342.3671875 67.6904296875 374.186523438 c 4
 79.7822265625 405.96484375 102.098632812 433.556640625 131.321289062 452.290039062 c 4
 166.17578125 474.6328125 206.667975288 483.022339649 244.83203125 483 c 4
 278.590845591 482.980238996 317.114305777 474.160969202 350 448.725253822 c 5
 350 667 l 5
 420 667 l 5
 420 319 l 5
 420 250 l 5
 420 158 l 6
 420 137.06640625 419.372070312 112.345703125 409.153320312 87.134765625 c 4
 399.053710938 62.216796875 381.373046875 41.3564453125 359.680664062 26.376953125 c 4
 324.62890625 2.1708984375 283.056640625 -6 244.81640625 -6 c 4
 206.684570312 -6 166.170898438 2.3701171875 131.321289062 24.7099609375 c 4
 102.098632812 43.443359375 79.7822265625 71.0341796875 67.6904296875 102.814453125 c 4
 55.5849609375 134.631835938 55 166.291015625 55 194 c 6
 55 283 l 6
125 283 m 6
 125 194 l 6
 125 167.546875 126.424804688 143.905273438 133.579101562 125.099609375 c 4
 140.749023438 106.2578125 154.303710938 89.787109375 170.678710938 79.2900390625 c 4
 191.057617188 66.2265625 217.342773438 60 244.81640625 60 c 4
 272.79296875 60 298.970703125 66.26171875 318.319335938 79.623046875 c 4
 329.60546875 87.4169921875 338.809570312 98.4697265625 343.764648438 110.6953125 c 4
 348.602539062 122.627929688 350 138.85546875 350 158 c 6
 350 250 l 5
 350 319 l 6
 350 338.145507812 348.6015625 354.372070312 343.765625 366.303710938 c 4
 338.809570312 378.53125 329.606445312 389.583007812 318.319335938 397.376953125 c 4
 298.967773438 410.740234375 272.810546875 416.98828125 244.80078125 417 c 4
 217.359375 417 191.052734375 410.770507812 170.678710938 397.709960938 c 4
 154.303710938 387.212890625 140.749023438 370.744140625 133.579101562 351.899414062 c 4
 126.424804688 333.096679688 125 309.452148438 125 283 c 6
EndSplineSet
Fore
SplineSet
55 283 m 6
 55 310.706054688 55.5771484375 342.36328125 67.6767578125 374.1875 c 4
 79.7646484375 405.977539062 102.092773438 433.577148438 131.338867188 452.301757812 c 4
 166.192382812 474.614257812 206.680664062 483 244.856445312 483 c 4
 279.665553732 482.983999801 317.32945355 473.93629894 350 448.072816836 c 5
 350 667 l 5
 420 667 l 5
 420 312 l 5
 420 231 l 5
 420 165 l 6
 420 143.3125 419.490234375 118.01171875 409.749023438 92.072265625 c 4
 400.076171875 66.31640625 382.681640625 44.017578125 360.314453125 27.8251953125 c 4
 325.44140625 2.5791015625 283.397460938 -6 244.842773438 -6 c 4
 206.694335938 -6 166.1875 2.388671875 131.338867188 24.6982421875 c 4
 102.092773438 43.421875 79.7646484375 71.0224609375 67.67578125 102.813476562 c 4
 55.5771484375 134.634765625 55 166.293945312 55 194 c 6
 55 283 l 6
125 283 m 6
 125 194 l 6
 125 167.540039062 126.418945312 143.89453125 133.5703125 125.084960938 c 4
 140.733398438 106.24609375 154.288085938 89.783203125 170.661132812 79.3017578125 c 4
 191.072265625 66.234375 217.374023438 60 244.842773438 60 c 4
 272.743164062 60 298.802734375 66.5048828125 317.685546875 80.1748046875 c 4
 329.251953125 88.5478515625 338.70703125 100.638671875 343.762695312 114.1015625 c 4
 348.75 127.379882812 350 144.793945312 350 165 c 6
 350 312 l 6
 350 332.2109375 348.750976562 349.6171875 343.763671875 362.897460938 c 4
 338.70703125 376.361328125 329.251953125 388.452148438 317.684570312 396.826171875 c 4
 298.80078125 410.49609375 272.756835938 416.989257812 244.829101562 417 c 4
 217.387695312 417 191.067382812 410.762695312 170.661132812 397.69921875 c 4
 154.288085938 387.216796875 140.733398438 370.75390625 133.569335938 351.9140625 c 4
 126.418945312 333.107421875 125 309.459960938 125 283 c 6
EndSplineSet
Validated: 524289
Layer: 2
Layer: 3
EndChar
StartChar: e
Encoding: 101 101 57
Width: 470
Flags: W
HStem: -6 66<168.116 354.173> 219 62<125.049 336.793> 417 66<176.181 328.004>
VStem: 55 70<102.775 219 281 366.73> 355.004 70<299.633 391.158>
AnchorPoint: "DoubleTop" -0.00195312 0 basechar 0
AnchorPoint: "Apos" -0.00195312 0 basechar 0
AnchorPoint: "Center" 4.99805 0 basechar 0
AnchorPoint: "Bottom" 250 0 basechar 0
AnchorPoint: "Top" 250 477 basechar 0
LayerCount: 4
Back
Fore
SplineSet
355.00390625 344.807617188 m 0
 355.00390625 354.672851562 352.143554688 365.053710938 347.048828125 373.958007812 c 0
 341.838867188 383.063476562 334.056640625 391.266601562 324.806640625 397.673828125 c 0
 306.0546875 410.666992188 281.150390625 416.983398438 254.723632812 417 c 0
 235.87109375 417 217.139648438 413.791015625 200.022460938 407.323242188 c 0
 183.018554688 400.8984375 167.5625 390.99609375 155.706054688 378.336914062 c 0
 143.959960938 365.794921875 135.087890625 349.504882812 130.412109375 331.897460938 c 0
 126.508545427 317.201393034 125.286794469 299.744425845 125.048828125 281 c 1
 249 281 l 0
 264.837890625 281 278.915039062 281.17578125 291.137695312 282.90625 c 0
 303.327148438 284.6328125 314.29296875 287.946289062 323.408203125 292.981445312 c 0
 332.487304688 297.99609375 340.55859375 305.267578125 346.073242188 313.970703125 c 0
 351.744140625 322.919921875 355.00390625 333.645507812 355.00390625 344.807617188 c 0
125 219 m 1
 125 193 l 2
 125 161 125 122 154 93 c 0
 176 71 209 60 250 60 c 0
 292 60 335 70 372 90 c 1
 405 32 l 1
 358 7 303 -6 250 -6 c 0
 189 -6 137 14 103 48 c 0
 55 96 55 156 55 193 c 2
 55 271 l 2
 55 295 55.2890625 320.744140625 62.5078125 347.926757812 c 0
 69.7109375 375.0546875 83.3408203125 400.78125 103.235351562 422.022460938 c 0
 123.01953125 443.146484375 147.688476562 458.650390625 173.983398438 468.586914062 c 0
 200.006835938 478.420898438 227.501953125 483 254.768554688 483 c 0
 292.37109375 482.9765625 332.4921875 474.25390625 366.255859375 450.860351562 c 0
 383.185546875 439.130859375 398.047851562 423.831054688 408.65625 405.29296875 c 0
 419.110351562 387.020507812 425.00390625 366.24609375 425.00390625 344.807617188 c 0
 425.00390625 323.090820312 418.771484375 302.018554688 407.116210938 283.625 c 0
 395.587890625 265.43359375 379.243164062 250.752929688 360.44921875 240.373046875 c 0
 341.693359375 230.012695312 321.526367188 224.422851562 302.190429688 221.684570312 c 0
 282.885742188 218.950195312 265.00390625 219 249 219 c 0
 125 219 l 1
125.048828125 281 m 1025
EndSplineSet
Validated: 524321
Layer: 2
Layer: 3
EndChar
StartChar: f
Encoding: 102 102 60
Width: 309
Flags: W
HStem: 0 21G<65 135> 415 62<135 245> 607 66<153.557 256.564>
VStem: 65 70<0 415 477 588.73>
LayerCount: 4
Back
Fore
SplineSet
206 673 m 0
 231 673 252 668 271 663 c 1
 253 599 l 1
 234 604 218 607 206 607 c 0
 185 607 165 600 152 584 c 0
 135 563 135 537 135 513 c 2
 135 477 l 1
 245 477 l 1
 245 415 l 1
 135 415 l 1
 135 0 l 1
 65 0 l 1
 65 513 l 2
 65 543 65 583 94 621 c 0
 120 655 161 673 206 673 c 0
EndSplineSet
Validated: 1
Layer: 2
Layer: 3
EndChar
StartChar: g
Encoding: 103 103 59
Width: 485
Flags: W
HStem: -192 66<105.845 303.616> -6 66<167.05 307.272> 417 66<169.447 313.835>
VStem: 55 70<102.845 373.305> 349 70<-81.0371 46 101.693 382.537>
AnchorPoint: "DoubleTop" 0 0 basechar 0
AnchorPoint: "Apos" 0 0 basechar 0
AnchorPoint: "Center" 0 0 basechar 0
AnchorPoint: "Bottom" 240 -185 basechar 0
AnchorPoint: "Top" 240 477 basechar 0
LayerCount: 4
Back
Fore
SplineSet
245 417 m 0
 214 417 177 408 153 382 c 0
 125 352 125 316 125 283 c 2
 125 194 l 2
 125 162 125 126 151 96 c 0
 176 67 213 60 237 60 c 0
 261 60 298 67 323 96 c 0
 349 126 349 162 349 194 c 2
 349 299 l 2
 349 329 349 360 325 386 c 0
 306 406 278 417 245 417 c 0
245 483 m 0
 302 483 348 462 380 427 c 0
 419 384 419 331 419 299 c 2
 419 13 l 2
 419 -24 419 -79 378 -128 c 0
 342 -170 288 -192 222 -192 c 0
 174 -192 128 -181 85 -165 c 1
 109 -103 l 1
 146 -118 185 -126 222 -126 c 0
 265 -126 302 -113 324 -86 c 0
 349 -55 349 -18 349 13 c 2
 349 46 l 1
 313 9 272 -6 232 -6 c 0
 172 -6 125 21 96 54 c 0
 55 102 55 158 55 194 c 2
 55 283 l 2
 55 318 55 377 101 426 c 0
 134 461 185 483 245 483 c 0
EndSplineSet
Validated: 1
Layer: 2
SplineSet
83.6875 -164.51953125 m 5
 110.3125 -103.48046875 l 5
 146.78125 -117.62109375 184.793945312 -126 221.926757812 -126 c 4
 241.419921875 -125.998046875 260.036132812 -123.46484375 276.692382812 -117.737304688 c 4
 293.161132812 -112.07421875 308.155273438 -102.908203125 319.520507812 -90.9921875 c 4
 330.80859375 -79.1572265625 339.361328125 -63.455078125 343.837890625 -46.375 c 4
 348.30859375 -29.3134765625 349 -9.2353515625 349 13 c 4
 349 97 l 5
 419 97 l 5
 419 13 l 4
 419 -9.9501953125 418.77734375 -35.5556640625 411.794921875 -62.2041015625 c 4
 404.81640625 -88.8349609375 391.46875 -114.260742188 371.571289062 -135.124023438 c 4
 351.749023438 -155.90625 326.938476562 -170.7109375 300.676757812 -179.7421875 c 4
 274.553710938 -188.725585938 247.705078125 -191.997070312 221.936523438 -192 c 4
 173.661132812 -192 126.849609375 -181.256835938 83.6875 -164.51953125 c 5
EndSplineSet
Layer: 3
EndChar
StartChar: h
Encoding: 104 104 56
Width: 480
VWidth: 0
Flags: W
HStem: 0 21G<65 135 350 420> 417 66<161.025 309.96> 647 20G<65 135>
VStem: 65 70<0 391.588 451.241 667> 350 70<0 377.421>
AnchorPoint: "DoubleTop" 0 0 basechar 0
AnchorPoint: "Apos" 0 0 basechar 0
AnchorPoint: "Center" -10 0 basechar 0
AnchorPoint: "Bottom" 245 0 basechar 0
AnchorPoint: "Top" 100 667 basechar 0
LayerCount: 4
Back
Fore
SplineSet
65 667 m 5
 135 667 l 5
 135 451.240536715 l 5
 166.618795751 474.768666364 202.946514928 482.995529055 235.0390625 483 c 4
 272.696288697 483.005246183 312.76171875 474.555664062 346.997070312 452.083984375 c 4
 375.10546875 433.6328125 396.412109375 406.760742188 407.934570312 375.981445312 c 4
 419.470703125 345.16796875 420 315 420 288 c 6
 420 0 l 5
 350 0 l 5
 350 288 l 6
 350 313 348.650390625 336.053710938 341.926757812 354.012695312 c 4
 335.189453125 372.0078125 322.431640625 387.7890625 307.002929688 397.916992188 c 4
 287.3828125 410.794921875 261.811523438 417 235.044921875 417 c 4
 207.875976562 416.997070312 182.494140625 410.76171875 164.086914062 397.662109375 c 4
 153.701171875 390.270507812 145.258789062 379.88671875 140.7265625 368.481445312 c 4
 136.307617188 357.359375 135 342 135 324 c 6
 135 250 l 5
 135 0 l 5
 65 0 l 5
 65 250 l 5
 65 324 l 5
 65 667 l 5
EndSplineSet
Validated: 524321
Layer: 2
Layer: 3
EndChar
StartChar: i
Encoding: 105 105 52
Width: 212
VWidth: 0
Flags: W
HStem: 0 21G<71 141> 550 94<65.5618 146.438>
VStem: 59 94<556.897 637.103> 71 70<0 477>
AnchorPoint: "Top" 19 23 basechar 0
AnchorPoint: "Bottom" 106 0 basechar 0
AnchorPoint: "Center" 0 0 basechar 0
AnchorPoint: "Apos" 0 0 basechar 0
AnchorPoint: "DoubleTop" 0 0 basechar 0
LayerCount: 4
Back
Fore
SplineSet
106 644 m 0xe0
 133 644 153 625 153 597 c 0
 153 569 133 550 106 550 c 0
 79 550 59 569 59 597 c 0
 59 625 79 644 106 644 c 0xe0
71 0 m 1xd0
 71 477 l 1
 141 477 l 1
 141 0 l 1
 71 0 l 1xd0
EndSplineSet
Validated: 1
Layer: 2
Layer: 3
EndChar
StartChar: j
Encoding: 106 106 61
Width: 210
Flags: W
HStem: -189 66<-50.2844 58.6088> 550 94<64.5618 145.438>
VStem: 58 94<556.897 637.103> 70 70<-101.295 478>
LayerCount: 4
Back
Fore
SplineSet
70 478 m 5xd0
 140 478 l 5
 140 -21 l 6
 140 -83 140 -116 107 -151 c 4
 86 -173 53 -189 9 -189 c 4
 -17 -189 -43 -183 -70 -172 c 5
 -44 -111 l 5
 -26 -119 -7 -123 9 -123 c 4
 29 -123 48 -117 59 -102 c 4
 70 -87 70 -69 70 -21 c 6
 70 478 l 5xd0
105 644 m 4
 132 644 152 625 152 597 c 4
 152 569 132 550 105 550 c 4
 78 550 58 569 58 597 c 4xe0
 58 625 78 644 105 644 c 4
EndSplineSet
Layer: 2
Layer: 3
EndChar
StartChar: k
Encoding: 107 107 68
Width: 457
Flags: W
HStem: 0 21G<65 135 323.83 423> 218 66<135 179.344> 647 20G<65 135>
VStem: 65 70<0 218 284 667>
AnchorPoint: "DoubleTop" 0 0 basechar 0
AnchorPoint: "Apos" 0 0 basechar 0
AnchorPoint: "Top" -8 0 basechar 0
AnchorPoint: "Center" -8 0 basechar 0
AnchorPoint: "Bottom" 229 0 basechar 0
LayerCount: 4
Back
Fore
SplineSet
65 667 m 5
 135 667 l 5
 135 284 l 5
 149 284 162 284 175 294 c 4
 185 302 193 312 208 331 c 6
 322 477 l 5
 408 477 l 5
 266 294 l 6
 253 277 248 270 238 260 c 5
 423 0 l 5
 338 0 l 5
 180 223 l 5
 166 219 152 218 135 218 c 5
 135 0 l 5
 65 0 l 5
 65 667 l 5
EndSplineSet
Validated: 1
Layer: 2
Layer: 3
EndChar
StartChar: m
Encoding: 109 109 46
Width: 750
Flags: W
HStem: 0 21G<60 130 340 410 620 690> 417 66<166.621 303.575 446.425 583.379>
VStem: 60 70<0 379.399> 340 70<0 381.026> 620 70<0 379.399>
CounterMasks: 1 38
LayerCount: 4
Back
Fore
SplineSet
233 483 m 0
 296 483 347 457 375 417 c 1
 403 457 454 483 517 483 c 0
 584 483 635 454 663 411 c 0
 689 372 690 330 690 291 c 2
 690 0 l 1
 620 0 l 1
 620 293 l 2
 620 321 620 353 599 380 c 0
 582 402 553 417 515 417 c 0
 477 417 448 402 431 380 c 0
 410 353 410 321 410 293 c 2
 410 0 l 1
 340 0 l 1
 340 293 l 2
 340 321 340 353 319 380 c 0
 302 402 273 417 235 417 c 0
 197 417 168 402 151 380 c 0
 130 353 130 321 130 293 c 2
 130 0 l 1
 60 0 l 1
 60 291 l 2
 60 330 61 372 87 411 c 0
 115 454 166 483 233 483 c 0
EndSplineSet
Validated: 1
Layer: 2
Layer: 3
EndChar
StartChar: n
Encoding: 110 110 58
Width: 475
VWidth: 0
Flags: W
HStem: 0 21G<60 130 345 415> 417 66<155.93 305.264>
VStem: 60 70<0 391.588> 345 70<0 377.421>
AnchorPoint: "DoubleTop" -5 0 basechar 0
AnchorPoint: "Center" -5 0 basechar 0
AnchorPoint: "Apos" 100 667 basechar 0
AnchorPoint: "Bottom" 240 0 basechar 0
AnchorPoint: "Top" 240 477 basechar 0
LayerCount: 4
Back
Fore
SplineSet
60 324 m 6
 60 344 60.5634765625 367.44140625 70.17578125 391.634765625 c 4
 79.6767578125 415.545898438 96.337890625 435.6953125 116.913085938 450.338867188 c 4
 151.275390625 474.793945312 192.415039062 482.99609375 230.0390625 483 c 4
 267.696289062 483 307.76171875 474.555664062 341.997070312 452.083984375 c 4
 370.10546875 433.6328125 391.412109375 406.760742188 402.934570312 375.981445312 c 4
 414.470703125 345.16796875 415 315 415 288 c 6
 415 0 l 5
 345 0 l 5
 345 288 l 6
 345 313 343.650390625 336.053710938 336.926757812 354.012695312 c 4
 330.189453125 372.0078125 317.431640625 387.7890625 302.002929688 397.916992188 c 4
 282.3828125 410.794921875 256.811523438 417 230.044921875 417 c 4
 202.875976562 416.997070312 177.494140625 410.76171875 159.086914062 397.662109375 c 4
 148.701171875 390.270507812 140.258789062 379.88671875 135.7265625 368.481445312 c 4
 131.307617188 357.359375 130 342 130 324 c 6
 130 0 l 5
 60 0 l 5
 60 324 l 6
EndSplineSet
Validated: 524289
Layer: 2
Layer: 3
EndChar
StartChar: o
Encoding: 111 111 53
Width: 490
Flags: W
HStem: -6 66<172.319 317.681> 418 66<172.319 317.681>
VStem: 55 70<108.461 369.539> 365 70<108.461 369.539>
AnchorPoint: "DoubleTop" 0 0 basechar 0
AnchorPoint: "Apos" 0 0 basechar 0
AnchorPoint: "Center" 0 0 basechar 0
AnchorPoint: "Bottom" 245 0 basechar 0
AnchorPoint: "Top" 245 477 basechar 0
LayerCount: 4
Back
SplineSet
149.235351562 373.856445312 m 4
 138.154296875 357.985351562 131.322265625 336.912109375 128.2421875 313.971679688 c 4
 125.094726562 290.538085938 125 265.424804688 125 239 c 4
 125 212.576171875 125.094726562 187.4609375 128.2421875 164.029296875 c 4
 131.323242188 141.0859375 138.154296875 120.015625 149.235351562 104.143554688 c 4
 159.2578125 89.787109375 173.744140625 78.1953125 189.971679688 70.9736328125 c 4
 206.544921875 63.59765625 225.5234375 60 245 60 c 4
 264.483398438 60 283.451171875 63.595703125 300.026367188 70.9736328125 c 4
 316.262695312 78.19921875 330.741210938 89.78515625 340.764648438 104.143554688 c 4
 351.845703125 120.015625 358.677734375 141.087890625 361.7578125 164.028320312 c 4
 364.905273438 187.461914062 365 212.575195312 365 239 c 4
 365 265.423828125 364.905273438 290.5390625 361.7578125 313.970703125 c 4
 358.676757812 336.9140625 351.845703125 357.984375 340.764648438 373.856445312 c 4
 330.7421875 388.212890625 316.255859375 399.8046875 300.028320312 407.026367188 c 4
 283.455078125 414.40234375 264.4765625 418 245 418 c 4
 225.516601562 418 206.548828125 414.404296875 189.973632812 407.026367188 c 4
 173.737304688 399.80078125 159.258789062 388.21484375 149.235351562 373.856445312 c 4
90.7646484375 410.14453125 m 4
 108.178710938 435.087890625 132.536132812 454.448242188 160.090820312 466.7109375 c 4
 187.306640625 478.82421875 216.551757812 484 245 484 c 4
 273.455078125 484 302.689453125 478.825195312 329.907226562 466.7109375 c 4
 357.470703125 454.444335938 381.8203125 435.088867188 399.235351562 410.14453125 c 4
 418.3984375 382.694335938 427.252929688 351.684570312 431.203125 322.262695312 c 4
 435.088867188 293.328125 435 265.41015625 435 239 c 4
 435 212.590820312 435.088867188 184.669921875 431.203125 155.73828125 c 4
 427.251953125 126.313476562 418.3984375 95.3056640625 399.235351562 67.8564453125 c 4
 381.821289062 42.912109375 357.463867188 23.5517578125 329.909179688 11.2890625 c 4
 302.693359375 -0.82421875 273.448242188 -6 245 -6 c 4
 216.544921875 -6 187.310546875 -0.8251953125 160.092773438 11.2890625 c 4
 132.529296875 23.5556640625 108.1796875 42.9111328125 90.7646484375 67.85546875 c 4
 71.6015625 95.3056640625 62.7470703125 126.315429688 58.796875 155.737304688 c 4
 54.9111328125 184.671875 55 212.58984375 55 239 c 4
 55 265.409179688 54.9111328125 293.330078125 58.796875 322.26171875 c 4
 62.748046875 351.686523438 71.6015625 382.693359375 90.7646484375 410.14453125 c 4
EndSplineSet
Fore
SplineSet
245 418 m 4
 205 418 170 403 150 375 c 4
 125 340 125 293 125 239 c 4
 125 185 125 138 150 103 c 4
 170 75 205 60 245 60 c 4
 285 60 320 75 340 103 c 4
 365 138 365 185 365 239 c 4
 365 293 365 340 340 375 c 4
 320 403 285 418 245 418 c 4
245 484 m 4
 306 484 365 460 400 409 c 4
 435 358 435 297 435 239 c 4
 435 181 435 120 400 69 c 4
 365 18 306 -6 245 -6 c 4
 184 -6 125 18 90 69 c 4
 55 120 55 181 55 239 c 4
 55 297 55 358 90 409 c 4
 125 460 184 484 245 484 c 4
EndSplineSet
Layer: 2
Layer: 3
EndChar
StartChar: p
Encoding: 112 112 63
Width: 485
VWidth: 0
Flags: W
HStem: -6 66<163.169 317.229> 417 66<163.022 317.232>
VStem: 60 70<-185 32.4502 91.6507 384.806> 360 70<102.387 374.613>
AnchorPoint: "DoubleTop" 0 0 basechar 0
AnchorPoint: "Center" 0 0 basechar 0
AnchorPoint: "Top" 0 0 basechar 0
AnchorPoint: "Apos" 488 667 basechar 0
AnchorPoint: "Bottom" 240 0 basechar 0
LayerCount: 4
Back
Fore
SplineSet
130 312 m 2
 130 165 l 2
 130 144 131.627929688 126.334960938 137.276367188 113.1875 c 0
 143.075195312 99.689453125 153.747070312 87.6337890625 166.766601562 79.2333984375 c 0
 186.926757812 66.2255859375 212.908203125 60 240.208984375 60 c 0
 267.0546875 60 293.017578125 66.333984375 313.384765625 79.330078125 c 0
 330.017578125 89.943359375 343.7890625 106.393554688 351.1484375 125.2109375 c 0
 358.461914062 143.912109375 360 168 360 194 c 2
 360 283 l 2
 360 309 358.461914062 333.087890625 351.1484375 351.7890625 c 0
 343.7890625 370.606445312 330.017578125 387.056640625 313.384765625 397.669921875 c 0
 293.016601562 410.665039062 267.0546875 417 240.208984375 417 c 0
 212.908203125 416.987304688 186.926757812 410.774414062 166.766601562 397.766601562 c 0
 153.747070312 389.366210938 143.075195312 377.310546875 137.276367188 363.8125 c 0
 131.627929688 350.665039062 130 333 130 312 c 2
60 312 m 2
 60 335 60.8193359375 361.64453125 72.3974609375 388.592773438 c 0
 83.8232421875 415.19140625 103.583007812 436.97265625 127.233398438 452.233398438 c 1
 161.866210938 474.579101562 202.166015625 482.982421875 240.17578125 483 c 0
 278.271484375 483 318.241210938 474.263671875 352.615234375 452.330078125 c 0
 381.77734375 433.72265625 404.400390625 406.396484375 416.826171875 374.622070312 c 0
 429.297851562 342.73046875 430 311 430 283 c 2
 430 194 l 2
 430 166 429.297851562 134.26953125 416.826171875 102.377929688 c 0
 404.400390625 70.603515625 381.77734375 43.27734375 352.615234375 24.669921875 c 0
 318.241210938 2.736328125 278.271484375 -6.0234375 240.17578125 -6 c 0
 203.173828125 -5.9775390625 164.001953125 4.5751953125 130 32.4501953125 c 1
 130 -185 l 1
 60 -185 l 1
 60 312 l 2
EndSplineSet
Validated: 524321
Layer: 2
Layer: 3
EndChar
StartChar: q
Encoding: 113 113 64
Width: 479
VWidth: 0
Flags: W
HStem: -6 66<166.91 307.272> 417 66<169.447 313.835>
VStem: 55 70<102.845 373.305> 349 70<-185 46 101.693 382.537>
AnchorPoint: "DoubleTop" 0 0 basechar 0
AnchorPoint: "Center" 0 0 basechar 0
AnchorPoint: "Top" 0 0 basechar 0
AnchorPoint: "Apos" 488 667 basechar 0
AnchorPoint: "Bottom" 230 0 basechar 0
LayerCount: 4
Back
Fore
SplineSet
245 417 m 4
 214 417 177 408 153 382 c 4
 125 352 125 316 125 283 c 6
 125 194 l 6
 125 162 125 126 151 96 c 4
 176 67 213 60 237 60 c 4
 261 60 298 67 323 96 c 4
 349 126 349 162 349 194 c 6
 349 299 l 6
 349 329 349 360 325 386 c 4
 306 406 278 417 245 417 c 4
245 483 m 4
 302 483 348 462 380 427 c 4
 419 384 419 331 419 299 c 6
 419 -185 l 5
 349 -185 l 5
 349 46 l 5
 313 9 272 -6 232 -6 c 4
 172 -6 124 20 96 54 c 4
 55 102 55 158 55 194 c 6
 55 283 l 6
 55 318 55 377 101 426 c 4
 134 461 185 483 245 483 c 4
EndSplineSet
Validated: 1
Layer: 2
Layer: 3
EndChar
StartChar: r
Encoding: 114 114 62
Width: 339
Flags: W
HStem: 0 21G<60 130> 417 66<172.643 294.277>
VStem: 60 70<0 375.179>
LayerCount: 4
Back
Fore
SplineSet
245 483 m 4
 267 483 288 480 311 473 c 5
 290 410 l 5
 274 415 259 417 245 417 c 4
 206 417 176 402 159 384 c 4
 130 353 130 318 130 283 c 6
 130 0 l 5
 60 0 l 5
 60 283 l 5
 60 323 60 375 104 425 c 4
 132 457 183 483 245 483 c 4
EndSplineSet
Validated: 1
Layer: 2
Layer: 3
EndChar
StartChar: t
Encoding: 116 116 65
Width: 298
Flags: W
HStem: -6 66<141.391 251.328> 415 62<130 240>
VStem: 60 70<81.7053 415 477 591>
AnchorPoint: "DoubleTop" -65 0 basechar 0
AnchorPoint: "Apos" 261 667 basechar 0
AnchorPoint: "Top" -50 0 basechar 0
AnchorPoint: "Center" -50 0 basechar 0
AnchorPoint: "Bottom" 176 0 basechar 0
LayerCount: 4
Back
Fore
SplineSet
60 591 m 1
 130 591 l 1
 130 477 l 1
 240 477 l 1
 240 415 l 1
 130 415 l 1
 130 132 l 2
 130 114 130 96 141 81 c 0
 152 66 171 60 191 60 c 0
 207 60 226 64 244 72 c 1
 273 12 l 1
 247 1 220 -6 191 -6 c 0
 147 -6 114 10 93 32 c 0
 60 67 60 106 60 132 c 2
 60 591 l 1
EndSplineSet
Validated: 1
Layer: 2
Layer: 3
EndChar
StartChar: u
Encoding: 117 117 66
Width: 480
Flags: W
HStem: -6 66<170.056 309.944>
VStem: 60 70<100.608 477> 350 70<100.608 477>
AnchorPoint: "DoubleTop" 0 0 basechar 0
AnchorPoint: "Apos" 0 0 basechar 0
AnchorPoint: "Center" -15 0 basechar 0
AnchorPoint: "Bottom" 240 0 basechar 0
AnchorPoint: "Top" 240 476 basechar 0
LayerCount: 4
Back
Fore
SplineSet
60 477 m 1
 130 477 l 1
 130 189 l 2
 130 158 130 124 155 95 c 0
 173 74 203 60 240 60 c 0
 277 60 307 74 325 95 c 0
 350 124 350 158 350 189 c 2
 350 477 l 1
 420 477 l 1
 420 189 l 2
 420 154 420 100 379 53 c 0
 347 16 296 -6 240 -6 c 0
 184 -6 133 16 101 53 c 0
 60 100 60 154 60 189 c 2
 60 477 l 1
EndSplineSet
Validated: 1
Layer: 2
Layer: 3
EndChar
StartChar: v
Encoding: 118 118 45
Width: 490
Flags: W
HStem: -6 66<221.705 268.295>
AnchorPoint: "DoubleTop" 5.25195 0 basechar 0
AnchorPoint: "Apos" 5.25195 0 basechar 0
AnchorPoint: "Bottom" -4.74805 0 basechar 0
AnchorPoint: "Center" -4.74805 0 basechar 0
AnchorPoint: "Top" 245 476 basechar 0
LayerCount: 4
Back
Fore
SplineSet
30 477 m 1
 103 477 l 1
 212 100 l 2
 217 84 218 79 224 71 c 0
 230 63 239 60 245 60 c 0
 251 60 260 63 266 71 c 0
 272 79 273 84 278 100 c 2
 387 477 l 1
 460 477 l 1
 345 81 l 2
 339 60 333 45 321 30 c 0
 305 10 277 -6 245 -6 c 0
 213 -6 185 10 169 30 c 0
 157 45 151 60 145 81 c 2
 30 477 l 1
EndSplineSet
Validated: 1
Layer: 2
Layer: 3
EndChar
StartChar: w
Encoding: 119 119 44
Width: 730
Flags: W
HStem: -6 66<163.793 295.721 434.279 566.207>
VStem: 60 70<93.7797 477> 330 70<93.0078 477> 600 70<93.7797 477>
CounterMasks: 1 70
AnchorPoint: "DoubleTop" 15 0 basechar 0
AnchorPoint: "Apos" 15 0 basechar 0
AnchorPoint: "Bottom" 15 0 basechar 0
AnchorPoint: "Center" 15 0 basechar 0
AnchorPoint: "Top" 375 477 basechar 0
LayerCount: 4
Back
Fore
SplineSet
60 477 m 1
 130 477 l 1
 130 179 l 2
 130 152 130 119 152 93 c 0
 173 68 205 60 230 60 c 0
 255 60 287 68 308 93 c 0
 330 119 330 152 330 179 c 2
 330 352 l 4
 330 477 l 1
 400 477 l 1
 400 179 l 2
 400 152 400 119 422 93 c 0
 443 68 475 60 500 60 c 0
 525 60 557 68 578 93 c 0
 600 119 600 152 600 179 c 2
 600 477 l 1
 670 477 l 1
 670 179 l 2
 670 144 670 81 615 34 c 0
 589 12 549 -6 500 -6 c 0
 438 -6 392 23 365 60 c 1
 338 23 292 -6 230 -6 c 0
 181 -6 141 12 115 34 c 0
 60 81 60 144 60 179 c 2
 60 477 l 1
EndSplineSet
Validated: 1
Layer: 2
Layer: 3
EndChar
StartChar: y
Encoding: 121 121 70
Width: 476
Flags: HW
HStem: -6 66<211.02 241.298>
LayerCount: 4
Back
SplineSet
102.087890625 478 m 1
 205.88671875 99.2578125 l 2
 208.029296875 91.4423828125 209.9609375 85.0576171875 212.07421875 80.3583984375 c 0
 214.197265625 75.6416015625 216.81640625 71.76953125 219.41015625 69.0791015625 c 0
 224.37890625 63.92578125 231.76953125 61 238 61 c 0
 244.23046875 61 251.625 63.927734375 256.58984375 69.0771484375 c 0
 259.1875 71.771484375 261.802734375 75.640625 263.92578125 80.3583984375 c 0
 265.642578125 84.171875 267.239257812 89.099609375 268.923828125 94.998046875 c 0
 373.912109375 478 l 1
 446.2109375 478 l 1
 264.760742188 -185 l 1
 192.461914062 -185 l 1
 241.536132812 -4.9365234375 l 2
 240.360351562 -4.978515625 239.181640625 -5 238 -5 c 0
 211.12109375 -5 185.62890625 6 167.615234375 24.681640625 c 0
 158.71875 33.91015625 152.3046875 44.2021484375 147.6328125 54.58203125 c 0
 142.955078125 64.98046875 140.34765625 74.5908203125 138.11328125 82.7412109375 c 2
 29.7890625 478 l 1
 102.087890625 478 l 1
EndSplineSet
Fore
SplineSet
102.087890625 477 m 1
 205.88671875 98.2578125 l 2
 209.47929705 85.1532527294 212.268463125 75.4869948458 219.41015625 68.0791015625 c 0
 224.37890625 62.92578125 242.76953125 60 259 60 c 9
 373.912109375 477 l 1
 446.2109375 477 l 1
 264.760742188 -183 l 1
 192.461914062 -183 l 1
 241.535986441 -5.93653799574 l 2
 240.360355228 -5.97875229131 239.181520925 -6 238 -6 c 0
 211.12109375 -6 185.62890625 5 167.615234375 23.681640625 c 0
 158.71875 32.91015625 152.3046875 43.2021484375 147.6328125 53.58203125 c 0
 142.955078125 63.98046875 140.34765625 73.5908203125 138.11328125 81.7412109375 c 2
 29.7890625 477 l 1
 102.087890625 477 l 1
EndSplineSet
Layer: 2
SplineSet
30 478 m 5
 104 478 l 5
 240 87 l 5
 376 478 l 5
 450 478 l 5
 210 -183 l 5
 136 -183 l 5
 203 0 l 5
 30 478 l 5
EndSplineSet
Layer: 3
EndChar
StartChar: z
Encoding: 122 122 71
Width: 440
VWidth: 0
Flags: W
HStem: 0 66<115.379 380> 411 66<60 299.525>
VStem: 39 70<73.2675 130.522> 311 70<346.123 405.657>
AnchorPoint: "DoubleTop" 0 0 basechar 0
AnchorPoint: "Apos" 0 0 basechar 0
AnchorPoint: "Center" 15 0 basechar 0
AnchorPoint: "Bottom" 220 0 basechar 0
AnchorPoint: "Top" 220 476 basechar 0
LayerCount: 4
Back
Fore
SplineSet
60 411 m 1
 60 477 l 1
 260 477 l 2
 285 477 323 477 354 447 c 0
 378 424 381 395 381 383 c 0
 381 334 347 304 320 283 c 2
 146 144 l 2
 128 129 109 115 109 94 c 0
 109 87 111 82 115 78 c 0
 123 67 136 66 160 66 c 2
 380 66 l 1
 380 0 l 1
 160 0 l 2
 136 0 89 0 58 39 c 0
 46 54 39 74 39 95 c 0
 39 144 76 175 100 194 c 2
 274 333 l 2
 292 348 311 362 311 383 c 0
 311 388 310 397 300 404 c 0
 290 411 271 411 260 411 c 2
 60 411 l 1
EndSplineSet
Validated: 1
Layer: 2
Layer: 3
EndChar
StartChar: sterling
Encoding: 163 163 114
Width: 548
VWidth: 0
Flags: W
HStem: 0 70<156 488> 292 61<60 120 194 418> 603 70<238.508 396.378>
VStem: 120 74<123.543 292 353 558.63>
LayerCount: 4
Back
Fore
SplineSet
120 466 m 2
 120 503 120 557 160 606 c 0
 194 648 250 673 315 673 c 0
 360 673 411 661 453 629 c 1
 409 573 l 1
 384 593 349 603 315 603 c 0
 275 603 241 589 221 566 c 0
 194 535 194 498 194 466 c 2
 194 353 l 1
 418 353 l 1
 418 292 l 1
 194 292 l 1
 194 251 194 201 183 151 c 0
 177 123 167 95 156 70 c 1
 488 70 l 1
 488 0 l 1
 60 0 l 1
 60 50 l 1
 86 86 101 124 110 164 c 0
 120 210 120 253 120 292 c 1
 60 292 l 1
 60 353 l 1
 120 353 l 1
 120 466 l 2
EndSplineSet
Validated: 1
Layer: 2
Layer: 3
EndChar
StartChar: section
Encoding: 167 167 115
Width: 468
VWidth: 0
Flags: W
HStem: -6 66<124.948 307.759> 607 66<153.665 337.4>
VStem: 65 70<311.139 417.646 500.645 588.291> 333 70<85.6985 184.242 261.045 374.127>
LayerCount: 4
Back
Fore
SplineSet
97 94 m 1
 139 73 184 60 229 60 c 0
 290 60 333 84 333 134 c 0
 333 190 288 204 222 218 c 0
 167 229 65 253 65 354 c 0
 65 398 85 429 113 449 c 1
 85 469 65 499 65 544 c 0
 65 641 160 673 229 673 c 0
 283 673 335 660 383 639 c 1
 353 579 l 1
 313 597 271 607 229 607 c 0
 173 607 135 586 135 544 c 0
 135 499 175 485 236 472 c 0
 297 460 403 435 403 324 c 0
 403 283 387 252 363 230 c 1
 386 208 403 178 403 134 c 0
 403 32 305 -6 229 -6 c 0
 170 -6 114 11 63 36 c 1
 97 94 l 1
163 424 m 1
 144 408 135 384 135 354 c 0
 135 309 175 295 236 282 c 0
 259 278 287 271 314 260 c 1
 327 276 333 297 333 324 c 0
 333 380 288 394 222 408 c 0
 205 411 184 416 163 424 c 1
EndSplineSet
Validated: 1
Layer: 2
Layer: 3
EndChar
StartChar: copyright
Encoding: 169 169 74
Width: 820
VWidth: 0
Flags: W
HStem: -185 62<209.073 610.927> -6 66<349.148 495.253> 417 66<350.375 492.943> 605 62<209.073 610.927>
VStem: 75 66<-54.1303 536.13> 252 70<88.4295 388.504> 679 66<-54.1303 536.13>
LayerCount: 4
Back
Fore
SplineSet
292 42 m 0
 252 84 252 131 252 166 c 2
 252 311 l 2
 252 342 252 391 292 434 c 0
 320 464 364 483 417 483 c 0
 464 483 512 469 549 438 c 1
 503 388 l 1
 480 407 449 417 417 417 c 0
 386 417 360 407 344 390 c 0
 322 366 322 338 322 311 c 2
 322 166 l 2
 322 138 322 112 343 88 c 0
 358 70 385 60 417 60 c 0
 455 60 488 73 509 92 c 1
 557 45 l 1
 524 14 476 -6 417 -6 c 0
 364 -6 320 13 292 42 c 0
328 -123 m 2
 492 -123 l 2
 540 -123 602 -123 643 -75 c 0
 679 -33 679 21 679 66 c 2
 679 416 l 2
 679 461 679 515 643 557 c 0
 602 605 540 605 492 605 c 2
 328 605 l 2
 280 605 218 605 177 557 c 0
 141 515 141 461 141 416 c 2
 141 66 l 2
 141 21 141 -33 177 -75 c 0
 218 -123 280 -123 328 -123 c 2
492 -185 m 2
 328 -185 l 2
 276 -185 191 -185 130 -119 c 0
 75 -59 75 13 75 66 c 2
 75 416 l 2
 75 469 75 541 130 601 c 0
 191 667 276 667 328 667 c 2
 492 667 l 2
 544 667 629 667 690 601 c 0
 745 541 745 469 745 416 c 2
 745 66 l 2
 745 13 745 -59 690 -119 c 0
 629 -185 544 -185 492 -185 c 2
EndSplineSet
Validated: 1
Layer: 2
Layer: 3
EndChar
StartChar: registered
Encoding: 174 174 75
Width: 820
VWidth: 0
Flags: W
HStem: -185 62<209.073 610.927> 0 21G<262 332 487.329 571> 172 66<332 420.532> 411 66<332 465.36> 605 62<209.073 610.927>
VStem: 75 66<-54.1303 536.13> 262 70<0 172 238 411> 491 70<262.922 386.661> 679 66<-54.1303 536.13>
LayerCount: 4
Back
Fore
SplineSet
393 238 m 2
 415 238 442 238 464 257 c 0
 480 271 491 295 491 325 c 0
 491 354 480 378 464 392 c 0
 442 411 415 411 393 411 c 2
 332 411 l 1
 332 238 l 1
 393 238 l 2
488 192 m 0
 571 0 l 1
 496 0 l 1
 421 173 l 1
 411 172 402 172 393 172 c 2
 332 172 l 1
 332 0 l 1
 262 0 l 1
 262 477 l 1
 393 477 l 2
 423 477 469 477 512 440 c 0
 542 414 561 371 561 325 c 0
 561 262 530 216 488 192 c 0
328 -123 m 2
 492 -123 l 2
 540 -123 602 -123 643 -75 c 0
 679 -33 679 21 679 66 c 2
 679 416 l 2
 679 461 679 515 643 557 c 0
 602 605 540 605 492 605 c 2
 328 605 l 2
 280 605 218 605 177 557 c 0
 141 515 141 461 141 416 c 2
 141 66 l 2
 141 21 141 -33 177 -75 c 0
 218 -123 280 -123 328 -123 c 2
492 -185 m 2
 328 -185 l 2
 276 -185 191 -185 130 -119 c 0
 75 -59 75 13 75 66 c 2
 75 416 l 2
 75 469 75 541 130 601 c 0
 191 667 276 667 328 667 c 2
 492 667 l 2
 544 667 629 667 690 601 c 0
 745 541 745 469 745 416 c 2
 745 66 l 2
 745 13 745 -59 690 -119 c 0
 629 -185 544 -185 492 -185 c 2
EndSplineSet
Validated: 1
Layer: 2
Layer: 3
EndChar
StartChar: paragraph
Encoding: 182 182 417
Width: 525
VWidth: 0
Flags: W
HStem: 0 21G<198 272 376 450> 597 70<274.09 376>
VStem: 60 212<364.389 559.25> 198 74<0 273.696> 376 74<0 597>
LayerCount: 4
Back
Fore
SplineSet
450 667 m 1xe8
 450 0 l 1
 376 0 l 1
 376 597 l 1
 272 597 l 1
 272 0 l 1
 198 0 l 1
 198 266 l 1xd8
 121 289 60 359 60 462 c 0
 60 536 93 593 134 625 c 0
 187 666 242 667 287 667 c 2
 450 667 l 1xe8
EndSplineSet
Validated: 1
Layer: 2
Layer: 3
EndChar
StartChar: cedilla
Encoding: 184 184 190
Width: 269
Flags: W
HStem: -191 52<61.4617 149.829>
VStem: 163 56<-131.068 -73.0988>
AnchorPoint: "Bottom" 129 0 mark 0
LayerCount: 4
Back
Fore
SplineSet
66 -130 m 0
 80 -136 95 -139 107 -139 c 0
 116 -139 129 -139 143 -131 c 0
 155 -124 163 -113 163 -100 c 0
 163 -90 158 -80 147 -74 c 0
 139 -70 131 -70 122 -70 c 2
 85 -70 l 1
 107 0 l 1
 151 0 l 1
 140 -37 l 1
 160.62962963 -37 177.333333333 -37 196 -50 c 0
 211 -61 219 -79 219 -99 c 0
 219 -127 204 -150 188 -164 c 0
 170 -180 141 -191 107 -191 c 0
 89 -191 69 -188 50 -180 c 0
 66 -130 l 0
EndSplineSet
Validated: 1
Layer: 2
Layer: 3
EndChar
StartChar: AE
Encoding: 198 198 41
Width: 739
Flags: W
HStem: 0 69<440 674> 195 70<144 366> 308 69<440 641> 597 70<202.065 366 440 664>
VStem: 70 74<0 195 265 541.576> 366 74<69 195 265 308 377 597>
LayerCount: 4
Back
Fore
SplineSet
366 265 m 1
 366 597 l 1
 285 597 l 2
 235 597 197 579 174 553 c 0
 144 519 144 477 144 442 c 2
 144 265 l 1
 366 265 l 1
664 667 m 1
 664 597 l 1
 440 597 l 1
 440 377 l 1
 641 377 l 1
 641 308 l 1
 440 308 l 1
 440 69 l 1
 674 69 l 1
 674 0 l 1
 366 0 l 1
 366 195 l 1
 144 195 l 1
 144 0 l 1
 70 0 l 1
 70 442 l 2
 70 484 70 545 119 600 c 0
 154 640 214 667 285 667 c 2
 664 667 l 1
EndSplineSet
Validated: 1
Layer: 2
Layer: 3
EndChar
StartChar: Thorn
Encoding: 222 222 362
Width: 522
VWidth: 0
Flags: W
HStem: 0 21G<75 149> 147 70<149 336.961> 487 70<149 336.961> 647 20G<75 149>
VStem: 75 74<0 147 217 487 557 667> 391 74<271.498 432.502>
LayerCount: 4
Back
Fore
SplineSet
75 667 m 1
 149 667 l 1
 149 557 l 5
 238 557 l 6
 279 557 338 557 392 514 c 4
 433 482 465 425 465 352 c 4
 465 279 433 222 392 190 c 4
 338 147 279 147 238 147 c 6
 149 147 l 5
 149 0 l 1
 75 0 l 1
 75 667 l 1
149 487 m 5
 149 217 l 5
 238 217 l 6
 273 217 311 217 345 244 c 4
 371 265 391 303 391 352 c 4
 391 401 371 439 345 460 c 4
 311 487 273 487 238 487 c 6
 149 487 l 5
EndSplineSet
Validated: 1
Layer: 2
Layer: 3
EndChar
StartChar: germandbls
Encoding: 223 223 363
Width: 505
VWidth: 0
Flags: WO
HStem: -6 66<211.915 342.944> 339 66<224 284.11> 607 66<165.41 295.288>
VStem: 65 70<0 577.133> 327 70<447.094 575.429> 385 70<102.319 299.182>
LayerCount: 4
Back
Fore
SplineSet
230 673 m 0xf8
 259 673 296 667 332 642 c 0
 368 617 397 571 397 514 c 0xf8
 397 465 376 420 347 391 c 1
 377 379 406 361 427 328 c 0
 455 284 455 240 455 205 c 2
 455 194 l 2
 455 158 455 103 414 55 c 0
 383 19 333 -6 269 -6 c 0
 243 -6 218 -2 195 5 c 1
 216 68 l 1
 233 63 251 60 269 60 c 0
 307 60 339 73 358 95 c 0
 385 126 385 160 385 194 c 2
 385 205 l 2xf4
 385 240 385 272 361 302 c 0
 332 339 278 339 240 339 c 2
 224 339 l 1
 224 339 224 405 224 405 c 1
 282 405 327 455 327 514 c 0
 327 547 312 573 292 588 c 0
 275 600 253 607 230 607 c 0
 209 607 177 601 156 576 c 0
 135 551 135 521 135 495 c 2
 135 0 l 1
 65 0 l 1
 65 495 l 2
 65 548 76 589 104 620 c 0
 132 651 176 673 230 673 c 0xf8
EndSplineSet
Layer: 2
Layer: 3
EndChar
StartChar: eth
Encoding: 240 240 364
Width: 485
VWidth: 0
Flags: W
HStem: -6 66<167.27 312.73> 417 66<167.654 313.084>
VStem: 55 70<102.009 374.302> 355 70<102.009 375.173>
AnchorPoint: "DoubleTop" 0 0 basechar 0
AnchorPoint: "Center" 0 0 basechar 0
AnchorPoint: "Top" 0 0 basechar 0
AnchorPoint: "Apos" 488 667 basechar 0
AnchorPoint: "Bottom" 230 0 basechar 0
LayerCount: 4
Back
Fore
SplineSet
425 194 m 2
 425 158 425 98 378 49 c 0
 345 14 294 -6 240 -6 c 0
 186 -6 135 14 102 49 c 0
 55 98 55 158 55 194 c 2
 55 281 l 2
 55 320 55 375 96 423 c 0
 123 455 170 483 230 483 c 0
 275 483 315 468 342 445 c 1
 332 502 307 551 276 589 c 1
 189 541 l 1
 163 587 l 1
 238 628 l 1
 214 648 187 664 159 674 c 1
 177 723 l 1
 220 709 259 687 292 658 c 1
 381 707 l 1
 407 661 l 1
 331 620 l 1
 365 580 391 533 406 477 c 0
 425 406 425 327 425 283 c 2
 425 194 l 2
  Spiro
    425 194 ]
    423.264 151.344 o
    411.053 100.318 o
    378 49 o
    339.599 19.2096 o
    292.394 0.46871 o
    240 -6 o
    187.606 0.46871 o
    140.401 19.2096 o
    102 49 o
    68.9468 100.318 o
    56.7355 151.344 o
    55 194 [
    55 281 ]
    56.514 324.434 o
    67.1664 373.569 o
    96 423 o
    129.368 452.751 o
    174.643 474.572 o
    230 483 o
    272.996 478.268 o
    310.998 465.057 o
    342 445 v
    327.352 499.171 o
    304.641 547.489 o
    276 589 v
    189 541 v
    163 587 v
    238 628 v
    213.1 646.575 o
    186.565 662.088 o
    159 674 v
    177 723 v
    218.552 706.39 o
    257.111 684.605 o
    292 658 v
    381 707 v
    407 661 v
    331 620 v
    362.194 577.637 o
    387.466 530.024 o
    406 477 o
    419.362 404.997 o
    424.298 337.012 o
    425 283 [
    0 0 z
  EndSpiro
240 417 m 0
 201 417 168 402 149 378 c 0
 125 348 125 313 125 283 c 2
 125 194 l 2
 125 164 125 129 149 99 c 0
 168 75 201 60 240 60 c 0
 279 60 312 75 331 99 c 0
 355 129 355 164 355 194 c 2
 355 283 l 2
 355 313 355 348 331 378 c 0
 312 402 279 417 240 417 c 0
  Spiro
    240 417 o
    203.33 412.232 o
    172.343 398.76 o
    149 378 o
    132.122 346.736 o
    125.886 314.264 o
    125 283 [
    125 194 ]
    125.886 162.736 o
    132.122 130.264 o
    149 99 o
    172.343 78.2396 o
    203.33 64.7684 o
    240 60 o
    276.67 64.7684 o
    307.657 78.2396 o
    331 99 o
    347.878 130.264 o
    354.114 162.736 o
    355 194 [
    355 283 ]
    354.114 314.264 o
    347.878 346.736 o
    331 378 o
    307.657 398.76 o
    276.67 412.232 o
    0 0 z
  EndSpiro
EndSplineSet
Validated: 1
Layer: 2
Layer: 3
EndChar
StartChar: Aogonek
Encoding: 260 260 367
Width: 570
VWidth: 0
UnlinkRmOvrlpSave: 1
Flags: W
HStem: -193 56<393.449 475.546> 0 21G<70 144> 195 70<144 426> 603 70<201.722 368.278>
VStem: 70 74<0 195 265 547.576> 334 56<-134.268 -47.2696> 426 74<-4.82489 195 265 547.576>
LayerCount: 4
Back
Fore
SplineSet
70 0 m 1
 70 448 l 2
 70 490 70 551 119 606 c 0
 154 646 214 673 285 673 c 0
 356 673 416 646 451 606 c 0
 500 551 500 490 500 448 c 2
 500 0 l 1
 452 -13 390 -41 390 -100 c 0
 390 -121 405 -137 426 -137 c 0
 438 -137 451 -132 465 -123 c 1
 495 -171 l 1
 476 -182 453 -193 426 -193 c 0
 374 -193 334 -152 334 -100 c 0
 334 -47.0096241174 379.271513257 -14.6493049088 426 4.88948946609 c 1
 426 195 l 1
 144 195 l 1
 144 0 l 1
 70 0 l 1
426 265 m 1
 426 448 l 2
 426 483 426 525 396 559 c 0
 373 585 335 603 285 603 c 0
 235 603 197 585 174 559 c 0
 144 525 144 483 144 448 c 2
 144 265 l 1
 426 265 l 1
EndSplineSet
Layer: 2
Layer: 3
EndChar
StartChar: aogonek
Encoding: 261 261 366
Width: 458
UnlinkRmOvrlpSave: 1
Flags: W
HStem: -193 56<298.076 378.546> -6 66<141.002 284.739> 229 62<141.675 333> 417 66<105.793 297.224>
VStem: 40 70<89.5318 197.999> 237 56<-133.664 -9.115> 333 70<85.2485 229 291 381.578>
LayerCount: 4
Back
Fore
SplineSet
248 229 m 2
 206 229 170 229 140 206 c 0
 123 193 110 172 110 143 c 0
 110 116 122 96 138 84 c 0
 159 67 191 60 228 60 c 0
 261 60 290 67 308 82 c 0
 328 99 333 121 333 158 c 2
 333 229 l 1
 248 229 l 2
218 483 m 0
 285 483 332 461 363 427 c 0
 403 382 403 331 403 297 c 2
 403 158 l 2
 403 128 403 74 355 34 c 0
 303 -10 293 -44 293 -95 c 0
 293 -119 308 -137 329 -137 c 0
 341 -137 354 -132 368 -123 c 1
 398 -171 l 1
 379 -182 356 -193 329 -193 c 0
 277 -193 237 -150 237 -95 c 0
 237 -56 247 -26 262 -4 c 1
 251 -5 240 -6 228 -6 c 0
 171 -6 126 7 92 34 c 0
 58 61 40 100 40 143 c 0
 40 195 67 233 97 255 c 0
 146 291 200 291 248 291 c 2
 333 291 l 1
 333 297 l 2
 333 325 333 359 309 385 c 0
 290 405 262 417 218 417 c 0
 175 417 130 407 90 389 c 1
 60 449 l 1
 112 472 164 483 218 483 c 0
EndSplineSet
Layer: 2
Layer: 3
EndChar
StartChar: Dcroat
Encoding: 272 272 371
Width: 629
VWidth: 0
Flags: W
HStem: 0 70<206.505 422.008> 313 62<55 126 200 328> 597 70<206.505 422.008>
VStem: 126 74<77.012 313 375 589.988> 492 74<141.936 525.064>
LayerCount: 4
Back
Fore
SplineSet
263 667 m 6
 309 667 l 6
 362 667 447 667 510 595 c 4
 566 531 566 452 566 392 c 6
 566 275 l 6
 566 215 566 136 510 72 c 4
 447 0 362 0 309 0 c 6
 263 0 l 6
 239 0 199 0 166 28 c 4
 126 63 126 107 126 135 c 6
 126 313 l 5
 55 313 l 5
 55 375 l 5
 126 375 l 5
 126 532 l 6
 126 560 126 604 166 639 c 4
 199 667 239 667 263 667 c 6
263 70 m 6
 309 70 l 6
 360 70 409 71 450 113 c 4
 491 156 492 221 492 275 c 6
 492 392 l 6
 492 446 491 511 450 554 c 4
 409 596 360 597 309 597 c 6
 263 597 l 6
 246 597 229 597 217 588 c 4
 200 575 200 553 200 532 c 6
 200 375 l 5
 328 375 l 5
 328 313 l 5
 200 313 l 5
 200 135 l 6
 200 114 200 92 217 79 c 4
 229 70 246 70 263 70 c 6
EndSplineSet
Validated: 1
Layer: 2
Layer: 3
EndChar
StartChar: dcroat
Encoding: 273 273 372
Width: 517
VWidth: 0
Flags: W
HStem: -6 66<167.386 312.614> 417 66<167.654 312.353> 546 62<239 355 425 487> 647 20G<355 425>
VStem: 55 70<101.988 374.302> 355 70<101.988 375.173 433 546 608 667>
LayerCount: 4
Back
Fore
SplineSet
240 417 m 4
 201 417 168 402 149 378 c 4
 125 348 125 313 125 283 c 6
 125 194 l 6
 125 162 125 129 149 99 c 4
 169 74 202 60 240 60 c 4
 278 60 311 74 331 99 c 4
 355 129 355 162 355 194 c 6
 355 283 l 6
 355 313 355 348 331 378 c 4
 312 402 279 417 240 417 c 4
230 483 m 4
 282 483 328 463 355 433 c 5
 355 546 l 5
 239 546 l 5
 239 608 l 5
 355 608 l 5
 355 667 l 5
 425 667 l 5
 425 608 l 5
 487 608 l 5
 487 546 l 5
 425 546 l 5
 425 194 l 6
 425 156 425 99 378 49 c 4
 343 12 291 -6 240 -6 c 4
 189 -6 137 12 102 49 c 4
 55 99 55 156 55 194 c 6
 55 281 l 6
 55 320 55 375 96 423 c 4
 123 455 170 483 230 483 c 4
EndSplineSet
Validated: 1
Layer: 2
Layer: 3
EndChar
StartChar: Eogonek
Encoding: 280 280 368
Width: 500
VWidth: 0
UnlinkRmOvrlpSave: 1
Flags: W
HStem: -193 56<328.449 410.546> 0 70<155.505 350 379.102 435> 309 70<149 385> 597 70<155.505 435>
VStem: 75 74<77.012 309 379 589.988> 269 56<-134.268 -47.3643>
LayerCount: 4
Back
Fore
SplineSet
212 0 m 2
 188 0 148 0 115 28 c 0
 75 63 75 107 75 135 c 2
 75 532 l 2
 75 560 75 604 115 639 c 0
 148 667 188 667 212 667 c 2
 435 667 l 1
 435 597 l 1
 212 597 l 2
 195 597 178 597 166 588 c 0
 149 575 149 553 149 532 c 2
 149 379 l 1
 385 379 l 1
 385 309 l 1
 149 309 l 1
 149 135 l 2
 149 114 149 92 166 79 c 0
 178 70 195 70 212 70 c 2
 435 70 l 1
 435 0 l 1
 387 -13 325 -41 325 -100 c 0
 325 -121 340 -137 361 -137 c 0
 373 -137 386 -132 400 -123 c 1
 430 -171 l 1
 411 -182 388 -193 361 -193 c 0
 309 -193 269 -152 269 -100 c 0
 269 -51 307 -20 350 0 c 1
 212 0 l 2
EndSplineSet
Layer: 2
Layer: 3
EndChar
StartChar: eogonek
Encoding: 281 281 369
Width: 470
VWidth: 0
UnlinkRmOvrlpSave: 1
Flags: W
HStem: -193 56<300.076 380.546> -6 66<168.116 284.016> 219 62<125 334.956> 417 66<171.128 329.954>
VStem: 55 70<102.775 219 281 371.936> 239 56<-133.664 -34.8401> 355 70<300.512 392.305>
LayerCount: 4
Back
Fore
SplineSet
255 417 m 0
 215 417 174 405 150 377 c 0
 125 348 125 314 125 284 c 2
 125 281 l 1
 249 281 l 2
 278 281 310 281 333 300 c 0
 345 310 355 326 355 347 c 0
 355 367 345 383 333 393 c 0
 315 409 287 417 255 417 c 0
255 483 m 4
 307 483 350 468 379 443 c 0
 406 420 425 387 425 347 c 0
 425 307 405 275 382 256 c 0
 338 219 287 219 249 219 c 2
 125 219 l 1
 125 193 l 2
 125 161 125 122 154 93 c 0
 176 71 209 60 250 60 c 0
 292 60 335 70 372 90 c 1
 405 32 l 1
 358 7 295 -30 295 -95 c 0
 295 -119 310 -137 331 -137 c 0
 343 -137 356 -132 370 -123 c 1
 400 -171 l 1
 381 -182 358 -193 331 -193 c 0
 279 -193 239 -150 239 -95 c 0
 239 -57 259 -28 285 -4 c 1
 274 -5 262 -6 250 -6 c 0
 189 -6 137 14 103 48 c 0
 55 96 55 156 55 193 c 2
 55 284 l 2
 55 320 55 385 111 434 c 0
 145 464 196 483 255 483 c 4
EndSplineSet
Layer: 2
Layer: 3
EndChar
StartChar: Hbar
Encoding: 294 294 374
Width: 710
VWidth: 0
Flags: W
HStem: 0 21G<134 205 503 574> 310 66<205 503> 545 62<75 134 205 503 574 635> 647 20G<134 205 503 574>
VStem: 134 71<0 310 376 545 607 667> 503 71<0 310 376 545 607 667>
LayerCount: 4
Back
Fore
SplineSet
134 667 m 1
 205 667 l 1
 205 607 l 5
 503 607 l 5
 503 667 l 1
 574 667 l 1
 574 607 l 5
 635 607 l 5
 635 545 l 5
 574 545 l 5
 574 0 l 1
 503 0 l 1
 503 310 l 1
 205 310 l 1
 205 0 l 1
 134 0 l 1
 134 545 l 5
 75 545 l 5
 75 607 l 5
 134 607 l 5
 134 667 l 1
205 545 m 5
 205 376 l 1
 503 376 l 1
 503 545 l 5
 205 545 l 5
EndSplineSet
Validated: 1
Layer: 2
Layer: 3
EndChar
StartChar: iogonek
Encoding: 303 303 377
Width: 212
VWidth: 0
UnlinkRmOvrlpSave: 1
Flags: W
HStem: -191 56<34.4486 115.753> 550 94<65.5618 146.438>
VStem: -25 56<-132.268 -46.5055> 59 94<556.897 637.103> 71 70<-2.12346 477>
LayerCount: 4
Back
Fore
SplineSet
67 -191 m 4xe8
 15 -191 -25 -150 -25 -98 c 4
 -25 -44 23 -13 71 7 c 5
 71 477 l 5
 141 477 l 5
 141 0 l 5
 93 -13 31 -40 31 -98 c 4
 31 -119 46 -135 67 -135 c 4
 80 -135 93 -130 106 -121 c 5
 134 -169 l 5
 116 -182 93 -191 67 -191 c 4xe8
106 644 m 0
 133 644 153 625 153 597 c 0
 153 569 133 550 106 550 c 0
 79 550 59 569 59 597 c 0xf0
 59 625 79 644 106 644 c 0
EndSplineSet
Layer: 2
Layer: 3
EndChar
StartChar: IJ
Encoding: 306 306 378
Width: 636
VWidth: 0
Flags: W
HStem: -6 70<287.666 437.115> 647 20G<85 159 487 561>
VStem: 85 74<0 667> 487 74<115.274 667>
AnchorPoint: "DoubleTop" 0 0 basechar 0
AnchorPoint: "Apos" 0 0 basechar 0
AnchorPoint: "Center" 0 0 basechar 0
AnchorPoint: "Bottom" 201 0 basechar 0
AnchorPoint: "Top" 359 667 basechar 0
LayerCount: 4
Back
Fore
SplineSet
487 219 m 0
 487 667 l 1
 561 667 l 1
 561 219 l 0
 561 176 561 120 520 66 c 0
 489 25 434 -6 366 -6 c 0
 310 -6 256 15 215 51 c 1
 264 103 l 1
 292 78 329 64 366 64 c 0
 408 64 440 82 460 107 c 0
 487 142 487 181 487 219 c 0
85 667 m 1
 159 667 l 1
 159 0 l 1
 85 0 l 1
 85 667 l 1
EndSplineSet
Validated: 1
Layer: 2
Layer: 3
EndChar
StartChar: ij
Encoding: 307 307 379
Width: 362
VWidth: 0
Flags: W
HStem: -191 66<98.6722 208.609> 0 21G<71 141> 550 94<65.5618 146.671 214.562 295.438>
VStem: 59 94<556.897 637.103> 71 70<0 477> 208 94<556.897 637.103> 220 70<-103.295 477>
LayerCount: 4
Back
Fore
SplineSet
220 477 m 1xe2
 290 477 l 1
 290 -53 l 2
 290 -79 290 -118 257 -153 c 0
 236 -175 203 -191 159 -191 c 0
 130 -191 103 -184 77 -173 c 1
 106 -113 l 1
 124 -121 143 -125 159 -125 c 0
 179 -125 198 -119 209 -104 c 0
 220 -89 220 -71 220 -53 c 2
 220 477 l 1xe2
255 644 m 0
 282 644 302 625 302 597 c 0
 302 569 282 550 255 550 c 0
 228 550 208 569 208 597 c 0xe4
 208 625 228 644 255 644 c 0
106 644 m 0
 134 644 153 625 153 597 c 0
 153 569 134 550 106 550 c 0
 79 550 59 569 59 597 c 0xf0
 59 625 79 644 106 644 c 0
71 477 m 1xe8
 141 477 l 1
 141 0 l 1
 71 0 l 1
 71 477 l 1xe8
EndSplineSet
Validated: 1
Layer: 2
Layer: 3
EndChar
StartChar: Lslash
Encoding: 321 321 380
Width: 550
VWidth: 0
Flags: W
HStem: 0 70<195.505 495> 647 20G<115 189>
VStem: 115 74<77.012 236 362 667>
LayerCount: 4
Back
Fore
SplineSet
115 311 m 1
 115 667 l 1
 189 667 l 1
 189 362 l 1
 266 416 l 1
 302 366 l 1
 189 287 l 1
 189 135 l 2
 189 114 189 92 206 79 c 0
 218 70 235 70 252 70 c 2
 495 70 l 1
 495 0 l 1
 252 0 l 2
 228 0 188 0 155 28 c 0
 115 63 115 107 115 135 c 2
 115 236 l 1
 58 196 l 1
 22 246 l 1
 115 311 l 1
EndSplineSet
Validated: 1
Layer: 2
Layer: 3
EndChar
StartChar: Eng
Encoding: 330 330 383
Width: 570
VWidth: 0
Flags: W
HStem: -191 70<307.444 417.263> 0 21G<70 144> 603 70<201.722 368.278>
VStem: 70 74<0 547.576> 426 74<-97.4843 547.576>
LayerCount: 4
Back
Fore
SplineSet
500 -51 m 6
 500 -78 498 -105 482 -132 c 4
 459 -169 417 -191 367 -191 c 4
 337 -191 309 -184 283 -173 c 5
 315 -109 l 5
 332 -117 350 -121 367 -121 c 4
 395 -121 410 -111 418 -98 c 4
 424 -87 426 -76 426 -51 c 6
 426 448 l 6
 426 483 426 525 396 559 c 4
 373 585 335 603 285 603 c 4
 235 603 197 585 174 559 c 4
 144 525 144 483 144 448 c 6
 144 0 l 5
 70 0 l 5
 70 448 l 6
 70 490 70 551 119 606 c 4
 154 646 214 673 285 673 c 4
 356 673 416 646 451 606 c 4
 500 551 500 490 500 448 c 6
 500 -51 l 6
EndSplineSet
Validated: 1
Layer: 2
Layer: 3
EndChar
StartChar: eng
Encoding: 331 331 384
Width: 480
VWidth: 0
Flags: W
HStem: -191 66<228.672 338.609> 0 21G<60 130> 417 66<170.056 309.944>
VStem: 60 70<0 376.392> 350 70<-103.295 376.392>
LayerCount: 4
Back
Fore
SplineSet
420 -53 m 6
 420 -79 420 -118 387 -153 c 4
 366 -175 333 -191 289 -191 c 4
 260 -191 233 -184 207 -173 c 5
 236 -113 l 5
 254 -121 273 -125 289 -125 c 4
 309 -125 328 -119 339 -104 c 4
 350 -89 350 -71 350 -53 c 6
 350 288 l 6
 350 319 350 353 325 382 c 4
 307 403 277 417 240 417 c 4
 203 417 173 403 155 382 c 4
 130 353 130 319 130 288 c 6
 130 0 l 5
 60 0 l 5
 60 288 l 6
 60 323 60 377 101 424 c 4
 133 461 184 483 240 483 c 4
 296 483 347 461 379 424 c 4
 420 377 420 323 420 288 c 6
 420 -53 l 6
EndSplineSet
Validated: 1
Layer: 2
Layer: 3
EndChar
StartChar: OE
Encoding: 338 338 193
Width: 806
VWidth: 0
Flags: W
HStem: -6 70<196.722 363.543 505.308 741> 309 70<495 701> 603 70<196.722 363.543 506.099 741>
VStem: 65 74<119.424 547.576> 421 74<119.424 309 379 547.576>
LayerCount: 4
Back
Fore
SplineSet
558 0 m 2
 532 0 472 0 439 59 c 1
 403 17 347 -6 280 -6 c 0
 209 -6 149 21 114 61 c 0
 65 116 65 177 65 219 c 2
 65 448 l 2
 65 490 65 551 114 606 c 0
 149 646 209 673 280 673 c 0
 347 673 403 649 439 608 c 1
 473 667 528 667 558 667 c 2
 741 667 l 1
 741 597 l 1
 558 597 l 2
 541 597 524 597 512 588 c 0
 495 575 495 553 495 532 c 2
 495 448 l 1
 495 379 l 1
 701 379 l 1
 701 309 l 1
 495 309 l 1
 495 219 l 1
 495 135 l 2
 495 114 495 92 512 79 c 0
 524 70 541 70 558 70 c 2
 741 70 l 1
 741 0 l 1
 558 0 l 2
280 603 m 0
 230 603 192 585 169 559 c 0
 139 525 139 483 139 448 c 2
 139 219 l 2
 139 184 139 142 169 108 c 0
 192 82 230 64 280 64 c 0
 330 64 368 82 391 108 c 0
 421 142 421 184 421 219 c 2
 421 448 l 2
 421 483 421 525 391 559 c 0
 368 585 330 603 280 603 c 0
EndSplineSet
Validated: 1
Layer: 2
Layer: 3
EndChar
StartChar: oe
Encoding: 339 339 102
Width: 700
VWidth: 0
Flags: W
HStem: -6 66<162.205 287.02 429.457 585.81> 224 62<395 556.015> 417 66<161.608 288.046 435.059 564.731>
VStem: 55 70<96.7971 380.203> 325 70<96.483 224 286 379.261> 585 70<304.997 400.466>
LayerCount: 4
Back
Fore
SplineSet
225 417 m 0
 191 417 164 402 148 382 c 0
 125 353 125 317 125 288 c 2
 125 189 l 2
 125 160 125 124 148 95 c 0
 164 75 191 60 225 60 c 0
 259 60 286 75 302 95 c 0
 325 124 325 160 325 189 c 2
 325 288 l 2
 325 317 325 353 302 382 c 0
 286 402 259 417 225 417 c 0
225 483 m 0
 284 483 335 454 361 417 c 1
 392 456 441 483 509 483 c 0
 538 483 574 477 604 455 c 0
 632 435 655 398 655 355 c 0
 655 308 630 272 600 251 c 0
 561 224 517 224 489 224 c 2
 395 224 l 1
 395 183 l 2
 395 150 395 109 430 81 c 0
 451 64 478 60 499 60 c 0
 533 60 571 72 602 90 c 1
 635 32 l 1
 593 9 547 -6 499 -6 c 0
 432 -6 390 19 360.874023438 59.837890625 c 1
 334.85546875 22.9189453125 283.912886311 -5.99999955685 225 -6 c 0
 167 -6.00000043628 119 21 91 57 c 0
 55 104 55 153 55 189 c 2
 55 288 l 2
 55 324 55 373 91 420 c 0
 119 456 167 483 225 483 c 0
509 417 m 0
 479 417 448 408 426 389 c 0
 395 362 395 327 395 297 c 2
 395 286 l 1
 489 286 l 2
 514 286 536 286 557 300 c 0
 572 310 585 330 585 355 c 0
 585 367 581 388 562 402 c 0
 542 417 516 417 509 417 c 0
EndSplineSet
Validated: 1
Layer: 2
Layer: 3
EndChar
StartChar: Uogonek
Encoding: 370 370 387
Width: 570
VWidth: 0
UnlinkRmOvrlpSave: 1
Flags: W
HStem: -191 56<256.449 337.753> 647 20G<70 144 426 500>
VStem: 70 74<119.424 667> 197 56<-132.268 -40.9319> 426 74<119.424 667>
LayerCount: 4
Back
Fore
SplineSet
70 667 m 5
 144 667 l 1
 144 219 l 2
 144 184 144 142 174 108 c 0
 197 82 235 64 285 64 c 0
 335 64 373 82 396 108 c 0
 426 142 426 184 426 219 c 2
 426 667 l 1
 500 667 l 1
 500 219 l 2
 500 177 500 116 451 61 c 0
 428 35 394 14 354 3 c 0
 267 -21 253 -67 253 -98 c 0
 253 -119 268 -135 289 -135 c 0
 302 -135 315 -130 328 -121 c 1
 356 -169 l 1
 338 -182 315 -191 289 -191 c 0
 237 -191 197 -150 197 -98 c 0
 197 -55 224 -26 258 -5 c 1
 199 1 150 26 119 61 c 0
 70 116 70 177 70 219 c 2
 70 667 l 5
EndSplineSet
Layer: 2
Layer: 3
EndChar
StartChar: uogonek
Encoding: 371 371 388
Width: 474
VWidth: 0
UnlinkRmOvrlpSave: 1
Flags: W
HStem: -193 56<204.449 286.546>
VStem: 60 70<98.4406 477> 145 56<-134.268 -41.8759> 344 70<98.4406 477>
LayerCount: 4
Back
Fore
SplineSet
290 1 m 0
 230 -15 201 -61 201 -100 c 0
 201 -121 216 -137 237 -137 c 0
 249 -137 262 -132 276 -123 c 1
 306 -171 l 1
 287 -182 264 -193 237 -193 c 0
 185 -193 145 -152 145 -100 c 0
 145 -55 173 -24 206 -4 c 1
 164 3 128 22 104 48 c 0
 60 95 60 151 60 186 c 2
 60 477 l 1
 130 477 l 1
 130 186 l 2
 130 156 130 119 157 91 c 0
 181 66 216 60 237 60 c 0
 258 60 293 66 317 91 c 0
 344 119 344 156 344 186 c 2
 344 477 l 1
 414 477 l 1
 414 186 l 2
 414 151 414 95 370 48 c 0
 350 27 322 10 290 1 c 0
EndSplineSet
Layer: 2
Layer: 3
EndChar
StartChar: longs
Encoding: 383 383 460
Width: 354
Flags: W
HStem: 0 21G<115 185> 415 62<35 115> 607 66<203.557 306.564>
VStem: 115 70<0 415 477 588.73>
LayerCount: 4
Back
Fore
SplineSet
256 673 m 4
 281 673 302 668 321 663 c 5
 303 599 l 5
 284 604 268 607 256 607 c 4
 235 607 215 600 202 584 c 4
 185 563 185 537 185 513 c 6
 185 0 l 5
 115 0 l 5
 115 415 l 5
 35 415 l 5
 35 477 l 5
 115 477 l 5
 115 513 l 6
 115 543 115 583 144 621 c 4
 170 655 211 673 256 673 c 4
EndSplineSet
Validated: 1
Layer: 2
Layer: 3
EndChar
StartChar: uni0259
Encoding: 601 601 396
Width: 470
Flags: W
HStem: -6 66<140.015 297.098> 196 62<152.17 345> 417 66<115.827 301.884>
VStem: 45 70<81.1539 172.94> 345 70<106.369 196 258 374.225>
LayerCount: 4
Back
Fore
SplineSet
220 483 m 0
 281 483 333 463 367 429 c 0
 415 381 415 321 415 284 c 2
 415 190 l 2
 415 152 415 89 354 39 c 0
 315 7 259 -6 208 -6 c 0
 172 -6 133 0 98 25 c 0
 66 48 45 84 45 126 c 0
 45 176 76 214 111 234 c 0
 153 258 196 258 231 258 c 2
 345 258 l 1
 345 284 l 2
 345 316 345 355 316 384 c 0
 294 406 261 417 220 417 c 0
 178 417 135 407 98 387 c 1
 65 445 l 1
 112 470 167 483 220 483 c 0
208 60 m 0
 244 60 284 69 308 89 c 0
 340 116 345 143 345 190 c 2
 345 196 l 1
 231 196 l 2
 199 196 176 196 151 183 c 0
 132 173 115 152 115 126 c 0
 115 104 127 86 144 75 c 0
 161 64 186 60 208 60 c 0
EndSplineSet
Validated: 1
Layer: 2
Layer: 3
EndChar
StartChar: breve
Encoding: 728 728 194
Width: 348
VWidth: 0
Flags: W
HStem: 540 52<127.616 220.384> 647 20G<50 106 242 298>
VStem: 50 56<613.589 667> 242 56<613.589 667>
AnchorPoint: "Top" 173.002 477 mark 0
LayerCount: 4
Back
Fore
SplineSet
50 667 m 5
 106 667 l 5
 106 628 136 592 174 592 c 4
 212 592 242 628 242 667 c 5
 298 667 l 5
 298 599 243 540 174 540 c 4
 105 540 50 599 50 667 c 5
EndSplineSet
Validated: 1
Layer: 2
Layer: 3
EndChar
StartChar: ogonek
Encoding: 731 731 389
Width: 266
VWidth: 0
Flags: W
HStem: -193 56<109.449 191.546> 0 20<185.654 196.5>
VStem: 50 56<-134.268 -47.1814>
AnchorPoint: "Bottom" 182 0 mark 0
LayerCount: 4
Back
Fore
SplineSet
50 -100 m 4
 50 -30 129 4 186 20 c 5
 216 0 l 5
 168 -13 106 -41 106 -100 c 4
 106 -121 121 -137 142 -137 c 4
 154 -137 167 -132 181 -123 c 5
 211 -171 l 5
 192 -182 169 -193 142 -193 c 4
 90 -193 50 -152 50 -100 c 4
EndSplineSet
Validated: 1
Layer: 2
Layer: 3
EndChar
StartChar: uni0311
Encoding: 785 785 409
Width: 348
VWidth: 0
Flags: W
HStem: 621 52<127.616 220.384>
VStem: 50 56<546 599.411> 242 56<546 599.411>
AnchorPoint: "Top" 173.002 477 mark 0
LayerCount: 4
Back
Fore
SplineSet
298 546 m 5
 242 546 l 5
 242 585 212 621 174 621 c 4
 136 621 106 585 106 546 c 5
 50 546 l 5
 50 614 105 673 174 673 c 4
 243 673 298 614 298 546 c 5
EndSplineSet
Validated: 1
Layer: 2
Layer: 3
EndChar
StartChar: omega
Encoding: 969 969 459
Width: 1000
VWidth: 0
LayerCount: 4
Back
SplineSet
65 477 m 5
 131 477 l 5
 131 190 l 6
 131 138 155 101 195 83 c 4
 217.512695312 72.16015625 240.720703125 70.359375 271 70.0595703125 c 5
 271 427 l 5
 336 427 l 5
 336 70.0595703125 l 5
 366.279296875 70.359375 389.487304688 72.16015625 412 83 c 4
 452 101 476 138 476 190 c 6
 476 190 476 478 476 478 c 5
 542 478 l 5
 542 190 l 6
 542 95 492 30 412 8 c 4
 383 0 355 0 317 0 c 6
 290 0 l 6
 252 0 224 0 195 8 c 4
 115 30 65 95 65 190 c 6
 65 477 l 5
EndSplineSet
Fore
Validated: 1
Layer: 2
Layer: 3
EndChar
StartChar: fraction
Encoding: 8260 8260 122
Width: 424
VWidth: 0
Flags: W
HStem: 0 21G<0 74.7946> 647 20G<349.205 424>
LayerCount: 4
Back
Fore
SplineSet
360 667 m 1
 424 667 l 1
 64 0 l 1
 0 0 l 1
 360 667 l 1
EndSplineSet
Validated: 1
Layer: 2
Layer: 3
EndChar
